<svg width="180" height="100" viewBox="0 0 180 100" fill="none" xmlns="http://www.w3.org/2000/svg">
<path d="M95.2558 24.9977C95.0694 24.774 94.9017 24.3079 94.7525 23.5996C94.6034 22.8539 94.5288 22.2201 94.5288 21.6982C95.4982 21.7728 96.4302 21.8473 97.325 21.9219C98.2198 21.9592 99.04 21.9965 99.7856 22.0337C100.345 20.9153 100.941 19.8155 101.575 18.7343C102.246 17.6158 102.88 16.6092 103.477 15.7144C104.11 14.7824 104.688 13.9994 105.21 13.3656C105.769 12.7318 106.198 12.3217 106.496 12.1353C106.869 12.1353 107.335 12.2099 107.894 12.359C108.491 12.4709 109.088 12.6386 109.684 12.8623C110.281 13.0487 110.821 13.2538 111.306 13.4775C111.79 13.7012 112.126 13.9249 112.312 14.1486C111.194 15.5653 110.225 16.8888 109.404 18.1191C108.621 19.3121 107.764 20.6916 106.832 22.2574C107.578 22.2574 108.323 22.2388 109.069 22.2015C109.852 22.1642 110.635 22.1083 111.418 22.0337C111.604 22.2201 111.753 22.4625 111.865 22.7607C111.977 23.0217 112.033 23.3013 112.033 23.5996C110.206 24.2707 107.988 24.6435 105.378 24.7181C104.446 26.5076 103.607 28.2971 102.861 30.0867C102.153 31.8389 101.538 33.5353 101.016 35.1757C100.531 36.8161 100.14 38.3633 99.8415 39.8173C99.5806 41.2713 99.4501 42.5762 99.4501 43.7319C99.4501 45.3724 100.065 46.2858 101.296 46.4722C102.414 46.323 103.477 46.0434 104.483 45.6333C105.49 45.2232 106.385 44.7013 107.167 44.0675C107.391 44.403 107.522 44.6826 107.559 44.9063C107.335 45.2419 106.944 45.6333 106.385 46.0807C105.863 46.5281 105.285 46.9568 104.651 47.367C104.017 47.8143 103.402 48.1872 102.805 48.4854C102.209 48.7837 101.762 48.9514 101.463 48.9887C100.531 48.9514 99.5992 48.7464 98.6672 48.3736C97.7351 48.0007 96.8776 47.5347 96.0947 46.9755C95.349 46.4163 94.7339 45.8011 94.2492 45.13C93.7646 44.4217 93.5222 43.7319 93.5222 43.0609C93.5222 42.1661 93.6341 41.0476 93.8578 39.7055C94.1187 38.326 94.4729 36.8347 94.9203 35.2316C95.3677 33.6285 95.8896 31.9508 96.4862 30.1985C97.0827 28.4463 97.7351 26.7126 98.4435 24.9977H95.2558Z" fill="white"/>
<path d="M130.91 24.1588C130.873 24.8672 130.743 25.6128 130.519 26.3958C130.333 27.1414 130.09 27.8311 129.792 28.4649C129.494 29.0614 129.177 29.5647 128.841 29.9748C128.506 30.3849 128.189 30.59 127.891 30.59C127.48 30.5527 127.238 30.2731 127.164 29.7511C127.164 29.6393 127.201 29.4715 127.275 29.2478C127.387 28.9869 127.499 28.7072 127.611 28.409C127.723 28.1107 127.816 27.8125 127.891 27.5142C128.002 27.216 128.058 26.955 128.058 26.7313C128.058 26.2093 127.928 25.7806 127.667 25.4451C127.443 25.0722 127.126 24.8858 126.716 24.8858C125.225 24.8858 124.088 25.8179 123.305 27.682C122.522 29.5461 122.13 32.2863 122.13 35.9027C122.13 36.2755 122.149 36.4992 122.186 36.5738C122.969 36.5365 123.659 36.5178 124.256 36.5178C124.889 36.4806 125.504 36.4619 126.101 36.4619C126.138 36.5365 126.157 36.6856 126.157 36.9093C126.157 37.2449 126.082 37.4872 125.933 37.6363C125.076 37.8227 124.386 37.9905 123.864 38.1396C123.379 38.2515 123.007 38.3633 122.746 38.4752C122.485 38.587 122.317 38.7175 122.242 38.8666C122.205 38.9785 122.186 39.1462 122.186 39.3699C122.186 39.6682 122.186 39.9664 122.186 40.2647C122.224 40.563 122.242 40.9358 122.242 41.3832C122.242 44.5149 121.385 47.0314 119.67 48.9328C117.992 50.8342 115.643 51.934 112.623 52.2323C112.102 52.195 111.561 52.0459 111.002 51.7849C110.442 51.5239 109.902 51.1884 109.38 50.7783C108.895 50.3682 108.467 49.9021 108.094 49.3802C107.721 48.8955 107.46 48.3922 107.311 47.8703C107.311 46.4535 107.609 45.1114 108.206 43.8438C108.802 42.5389 109.604 41.4018 110.61 40.4325C111.654 39.4259 112.866 38.6243 114.245 38.0278C115.662 37.394 117.191 37.0212 118.831 36.9093C118.831 35.9773 118.738 35.0638 118.551 34.1691C118.365 33.2743 118.16 32.4168 117.936 31.5966C117.75 30.7391 117.563 29.9189 117.377 29.136C117.191 28.3158 117.097 27.5142 117.097 26.7313C117.097 25.7247 117.302 24.7367 117.713 23.7674C118.123 22.7607 118.663 21.8473 119.334 21.0271C120.005 20.1696 120.788 19.4426 121.683 18.8461C122.578 18.2496 123.51 17.8395 124.479 17.6158C124.889 17.7277 125.43 18.0632 126.101 18.6224C126.809 19.1444 127.499 19.7409 128.17 20.412C128.841 21.083 129.438 21.7728 129.96 22.4811C130.482 23.1522 130.799 23.7114 130.91 24.1588ZM112.456 49.6598C113.35 49.287 114.189 48.7464 114.972 48.038C115.792 47.3297 116.501 46.5281 117.097 45.6333C117.694 44.7386 118.16 43.7879 118.495 42.7812C118.868 41.7746 119.055 40.7867 119.055 39.8173C118.309 39.9292 117.489 40.2833 116.594 40.8799C115.699 41.4391 114.86 42.1288 114.077 42.949C113.295 43.7319 112.642 44.5521 112.12 45.4096C111.598 46.2671 111.337 47.0128 111.337 47.6466C111.337 48.4668 111.71 49.1378 112.456 49.6598Z" fill="white"/>
<path d="M150.97 23.264C150.821 25.5755 150.411 27.5701 149.74 29.2478C149.069 30.8882 148.099 32.3423 146.832 33.6098C145.602 34.8402 144.092 35.9586 142.302 36.9652C140.513 37.9719 138.425 38.9412 136.039 39.8732C136.039 40.0969 136.02 40.3393 135.983 40.6002C135.983 40.8239 135.983 41.0663 135.983 41.3272C135.983 41.8119 136.02 42.3152 136.095 42.8372C136.169 43.3591 136.3 43.8438 136.486 44.2912C136.673 44.7386 136.933 45.1114 137.269 45.4096C137.605 45.6706 138.033 45.8011 138.555 45.8011C139.562 45.8011 140.55 45.5774 141.519 45.13C142.489 44.6826 143.402 44.142 144.259 43.5082C145.154 42.8372 145.974 42.1288 146.72 41.3832C147.503 40.6002 148.193 39.8919 148.789 39.2581C149.162 39.5936 149.479 39.9105 149.74 40.2088C148.062 42.4457 146.217 44.3098 144.203 45.8011C142.228 47.2551 140.345 48.1872 138.555 48.5973C135.983 48.299 133.97 47.3669 132.516 45.8011C131.099 44.198 130.39 42.2779 130.39 40.041C130.39 38.5124 130.596 36.9652 131.006 35.3994C131.453 33.7963 132.05 32.2677 132.795 30.8137C133.578 29.3224 134.473 27.9243 135.479 26.6194C136.523 25.3146 137.623 24.1775 138.779 23.2081C139.972 22.2388 141.184 21.4745 142.414 20.9153C143.682 20.356 144.93 20.0764 146.161 20.0764C147.876 20.3001 149.479 21.3627 150.97 23.264ZM147.112 25.1095C146.105 25.2586 145.061 25.6688 143.98 26.3398C142.899 27.0109 141.873 27.9057 140.904 29.0241C139.972 30.1426 139.114 31.4475 138.332 32.9388C137.549 34.43 136.933 36.0332 136.486 37.7482C139.469 36.2569 141.948 34.43 143.924 32.2677C145.9 30.068 146.962 27.682 147.112 25.1095Z" fill="white"/>
<path d="M156.253 26.6194C156.253 25.9484 156.29 25.3146 156.365 24.7181C156.476 24.1215 156.682 23.6182 156.98 23.2081C157.278 22.7607 157.688 22.4252 158.21 22.2015C158.732 21.9405 159.422 21.81 160.279 21.81C160.801 21.81 161.379 21.866 162.013 21.9778C162.684 22.0897 163.169 22.2947 163.467 22.593C163.318 23.2268 163.187 23.786 163.075 24.2707C163.001 24.7553 162.926 25.2959 162.852 25.8924C162.814 26.4517 162.777 27.1414 162.74 27.9616C162.703 28.7445 162.665 29.7698 162.628 31.0374C162.553 33.5726 162.423 35.8468 162.237 37.86C162.087 39.836 161.715 41.8119 161.118 43.7879C161.118 43.937 161.174 44.0116 161.286 44.0116C161.845 43.6015 162.479 43.0049 163.187 42.222C163.896 41.4391 164.641 40.563 165.424 39.5936C166.207 38.587 166.99 37.5245 167.773 36.406C168.556 35.2875 169.283 34.1877 169.954 33.1065C170.849 31.5407 171.837 29.5834 172.918 27.2346C173.999 24.8858 174.894 22.3693 175.602 19.685C175.826 19.685 176.105 19.7409 176.441 19.8527C176.814 19.9273 177.168 20.0391 177.504 20.1883C177.876 20.3001 178.193 20.4306 178.454 20.5797C178.753 20.7289 178.958 20.8594 179.069 20.9712C178.995 22.5743 178.603 24.2147 177.895 25.8924C177.224 27.5701 176.404 29.1919 175.434 30.7578C174.465 32.3236 173.44 33.7963 172.359 35.1757C171.277 36.5551 170.289 37.7482 169.395 38.7548C167.605 40.8426 165.797 42.7067 163.97 44.3471C162.181 45.9875 160.037 47.572 157.539 49.1006C156.57 48.7277 155.805 48.2244 155.246 47.5906C154.687 46.9941 154.407 46.3603 154.407 45.6893C154.407 45.2419 154.501 44.7386 154.687 44.1793C154.911 43.5828 155.153 42.8372 155.414 41.9424C155.675 41.0103 155.899 39.8546 156.085 38.4752C156.309 37.0957 156.421 35.3435 156.421 33.2184C156.421 31.9881 156.383 30.7578 156.309 29.5275C156.271 28.2599 156.253 27.2905 156.253 26.6194Z" fill="white"/>
<path d="M18.1191 8.77994C16.4787 10.9796 14.9874 13.4029 13.6453 16.05C12.3031 18.697 11.1474 21.4186 10.178 24.2147C9.24597 26.9736 8.51897 29.7139 7.99702 32.4355C7.51235 35.1198 7.27002 37.6363 7.27002 39.9851C7.27002 42.8931 7.69876 44.9995 8.55625 46.3044C9.41374 47.6093 10.8864 48.2617 12.9742 48.2617C15.3975 48.2617 17.5226 47.4229 19.3494 45.7452C21.1763 44.0302 22.8912 41.6814 24.4944 38.6989C25.5383 36.7602 26.433 34.6351 27.1787 32.3236C27.9243 30.0121 28.5208 27.6447 28.9682 25.2214C29.4529 22.7607 29.8071 20.3001 30.0308 17.8395C30.2545 15.3416 30.3663 12.9555 30.3663 10.6813C30.3663 9.22733 30.3477 8.16479 30.3104 7.49371C30.2731 6.82263 30.2172 6.28204 30.1426 5.87194C30.2544 5.87194 30.5341 5.90922 30.9815 5.98378C31.4288 6.05835 31.9321 6.15155 32.4914 6.2634C33.0879 6.37524 33.6658 6.52437 34.225 6.71078C34.8215 6.89719 35.3248 7.10225 35.7349 7.32594C35.5485 10.1594 35.1943 13.086 34.6724 16.1059C34.1877 19.1257 33.5353 22.1083 32.7151 25.0536C31.8949 27.9989 30.9442 30.8323 29.863 33.5539C28.7818 36.2755 27.5701 38.7175 26.228 40.8799C24.252 44.0861 22.0337 46.584 19.5731 48.3736C17.1125 50.2004 14.2045 51.1138 10.8491 51.1138C7.41914 51.1138 4.75347 50.1072 2.85208 48.094C0.950694 46.118 0 43.0981 0 39.0344C0 36.6856 0.260975 34.0386 0.782925 31.0933C1.30487 28.1107 1.99459 25.0909 2.85208 22.0337C3.74685 18.9393 4.77211 15.9381 5.92786 13.0301C7.0836 10.0848 8.29527 7.45643 9.56287 5.14493C10.1967 5.18222 10.9423 5.3127 11.7998 5.5364C12.6573 5.76009 13.4961 6.05835 14.3163 6.43117C15.1365 6.76671 15.8822 7.15817 16.5533 7.60556C17.2616 8.01566 17.7836 8.40712 18.1191 8.77994Z" fill="white"/>
<path d="M53.7247 24.1588C53.6874 24.8672 53.5569 25.6128 53.3333 26.3958C53.1468 27.1414 52.9045 27.8311 52.6063 28.4649C52.308 29.0614 51.9911 29.5647 51.6556 29.9748C51.32 30.3849 51.0031 30.59 50.7049 30.59C50.2948 30.5527 50.0524 30.2731 49.9779 29.7511C49.9779 29.6393 50.0151 29.4715 50.0897 29.2478C50.2016 28.9869 50.3134 28.7072 50.4252 28.409C50.5371 28.1107 50.6303 27.8125 50.7049 27.5142C50.8167 27.216 50.8726 26.955 50.8726 26.7313C50.8726 26.2093 50.7421 25.7806 50.4812 25.4451C50.2575 25.0722 49.9406 24.8858 49.5305 24.8858C48.0392 24.8858 46.9021 25.8179 46.1192 27.682C45.3362 29.5461 44.9448 32.2863 44.9448 35.9027C44.9448 36.2755 44.9634 36.4992 45.0007 36.5738C45.7836 36.5365 46.4733 36.5178 47.0699 36.5178C47.7037 36.4806 48.3188 36.4619 48.9153 36.4619C48.9526 36.5365 48.9712 36.6856 48.9712 36.9093C48.9712 37.2449 48.8967 37.4872 48.7476 37.6363C47.8901 37.8227 47.2003 37.9905 46.6784 38.1396C46.1937 38.2515 45.8209 38.3633 45.5599 38.4752C45.299 38.587 45.1312 38.7175 45.0566 38.8666C45.0193 38.9785 45.0007 39.1462 45.0007 39.3699C45.0007 39.6682 45.0007 39.9664 45.0007 40.2647C45.038 40.563 45.0566 40.9358 45.0566 41.3832C45.0566 44.5149 44.1991 47.0314 42.4842 48.9328C40.8065 50.8342 38.4577 51.934 35.4378 52.2323C34.9159 52.195 34.3753 52.0459 33.8161 51.7849C33.2568 51.5239 32.7162 51.1884 32.1943 50.7783C31.7096 50.3682 31.2809 49.9021 30.9081 49.3802C30.5352 48.8955 30.2743 48.3922 30.1251 47.8703C30.1251 46.4535 30.4234 45.1114 31.0199 43.8438C31.6164 42.5389 32.418 41.4018 33.4246 40.4325C34.4685 39.4259 35.6802 38.6243 37.0596 38.0278C38.4763 37.394 40.0049 37.0212 41.6453 36.9093C41.6453 35.9773 41.5521 35.0638 41.3657 34.1691C41.1793 33.2743 40.9742 32.4168 40.7505 31.5966C40.5641 30.7391 40.3777 29.9189 40.1913 29.136C40.0049 28.3158 39.9117 27.5142 39.9117 26.7313C39.9117 25.7247 40.1167 24.7367 40.5268 23.7674C40.9369 22.7607 41.4775 21.8473 42.1486 21.0271C42.8197 20.1696 43.6026 19.4426 44.4974 18.8461C45.3922 18.2496 46.3242 17.8395 47.2936 17.6158C47.7037 17.7277 48.2442 18.0632 48.9153 18.6224C49.6237 19.1444 50.3134 19.7409 50.9845 20.412C51.6556 21.083 52.2521 21.7728 52.774 22.4811C53.296 23.1522 53.6129 23.7114 53.7247 24.1588ZM35.2701 49.6598C36.1648 49.287 37.0037 48.7464 37.7866 48.038C38.6068 47.3297 39.3152 46.5281 39.9117 45.6333C40.5082 44.7386 40.9742 43.7879 41.3098 42.7812C41.6826 41.7746 41.869 40.7867 41.869 39.8173C41.1234 39.9292 40.3032 40.2833 39.4084 40.8799C38.5136 41.4391 37.6748 42.1288 36.8918 42.949C36.1089 43.7319 35.4565 44.5521 34.9345 45.4096C34.4126 46.2671 34.1516 47.0128 34.1516 47.6466C34.1516 48.4668 34.5244 49.1378 35.2701 49.6598Z" fill="white"/>
<path d="M60.363 48.3736C58.2379 48.1499 56.5416 47.2178 55.274 45.5774C54.0064 43.937 53.3726 41.8492 53.3726 39.314C53.3726 37.8227 53.5963 36.2755 54.0437 34.6724C54.491 33.0693 55.1248 31.522 55.945 30.0308C56.7652 28.5022 57.7346 27.0668 58.8531 25.7247C59.9715 24.3825 61.1832 23.2268 62.4881 22.2574C64.5386 20.7289 66.4586 19.9646 68.2481 19.9646C69.4412 20.5984 70.6156 21.9219 71.7713 23.9351C71.9577 23.9351 72.1255 23.9351 72.2746 23.9351C72.4237 23.8978 72.5915 23.8792 72.7779 23.8792C74.7539 23.8792 75.7419 25.6315 75.7419 29.136C75.7419 31.4848 75.3504 33.7217 74.5675 35.8468C73.8218 37.9346 72.7593 39.836 71.3798 41.5509C70.0377 43.2659 68.4159 44.7199 66.5145 45.9129C64.6504 47.0687 62.5999 47.8889 60.363 48.3736ZM63.2151 30.7578C62.5813 31.6152 61.9847 32.5473 61.4255 33.5539C60.8663 34.5605 60.3816 35.5858 59.9715 36.6297C59.5614 37.6363 59.2445 38.6243 59.0208 39.5936C58.7971 40.5257 58.6853 41.3645 58.6853 42.1102C58.6853 43.0049 58.8344 43.8624 59.1327 44.6826C59.4309 45.5028 59.7665 45.9689 60.1393 46.0807C61.817 45.7079 63.3455 45.0182 64.725 44.0116C66.1417 42.9677 67.3534 41.6814 68.36 40.1529C69.4039 38.6243 70.2055 36.8907 70.7647 34.952C71.3612 33.0133 71.6595 30.9442 71.6595 28.7445C71.6595 27.7752 71.6035 27.0109 71.4917 26.4517C71.3798 25.8924 71.1934 25.4078 70.9325 24.9977C69.292 25.4823 67.8194 26.2653 66.5145 27.3464C65.2469 28.4276 64.1471 29.5647 63.2151 30.7578Z" fill="white"/>
<path d="M78.393 42.8372C78.393 41.1968 78.7844 38.9039 79.5674 35.9586C80.3503 32.976 81.4501 29.5088 82.8668 25.5569C85.1783 19.2562 87.3407 14.0181 89.3539 9.84248C91.4044 5.6296 93.399 2.34878 95.3377 0C95.7851 0.0745633 96.3257 0.260974 96.9595 0.559231C97.6305 0.857489 98.283 1.19303 98.9168 1.56585C99.5506 1.90139 100.11 2.25557 100.594 2.62839C101.116 3.00121 101.452 3.29947 101.601 3.52316C98.6931 6.95312 96.1393 10.6441 93.9396 14.596C91.74 18.5479 89.7267 23.0776 87.8999 28.1853C86.3341 32.5846 85.141 36.5551 84.3208 40.0969C83.5006 43.6015 83.0905 46.5281 83.0905 48.8769C83.0905 49.5107 83.0905 49.9021 83.0905 50.0513C83.0905 50.2004 83.1092 50.3495 83.1464 50.4986C82.6245 50.4241 82.1771 50.2936 81.8043 50.1072C81.4315 49.9208 81.1891 49.6971 81.0773 49.4361C81.0027 49.2497 80.7977 48.9701 80.4621 48.5973C80.1266 48.2617 79.8283 48.0007 79.5674 47.8143C79.2318 47.5906 78.9522 47.0128 78.7285 46.0807C78.5048 45.1114 78.393 44.0302 78.393 42.8372Z" fill="white"/>
<path d="M81.7431 66.2292C87.8365 62.5645 108.062 51.7047 138.661 53.8273C154.756 54.9438 171.609 57.8824 178.922 61.8933C167.581 59.9387 162.027 56.616 138.5 56.1518C107.456 54.6061 91.7838 67.5096 83.9065 71.6346C81.8912 72.69 79.7935 67.4016 81.7431 66.2292Z" fill="white"/>
<path d="M111.25 71.9266C111.213 72.6349 111.082 73.3806 110.858 74.1635C110.672 74.9091 110.43 75.5988 110.131 76.2326C109.833 76.8291 109.516 77.3325 109.181 77.7426C108.845 78.1527 108.528 78.3577 108.23 78.3577C107.82 78.3204 107.578 78.0408 107.503 77.5189C107.503 77.407 107.54 77.2393 107.615 77.0156C107.727 76.7546 107.839 76.475 107.95 76.1767C108.062 75.8785 108.155 75.5802 108.23 75.2819C108.342 74.9837 108.398 74.7227 108.398 74.499C108.398 73.9771 108.267 73.5483 108.006 73.2128C107.783 72.84 107.466 72.6536 107.056 72.6536C105.564 72.6536 104.427 73.5856 103.644 75.4497C102.861 77.3138 102.47 80.0541 102.47 83.6704C102.47 84.0432 102.489 84.2669 102.526 84.3415C103.309 84.3042 103.999 84.2856 104.595 84.2856C105.229 84.2483 105.844 84.2297 106.44 84.2297C106.478 84.3042 106.496 84.4533 106.496 84.677C106.496 85.0126 106.422 85.2549 106.273 85.404C105.415 85.5905 104.726 85.7582 104.204 85.9073C103.719 86.0192 103.346 86.131 103.085 86.2429C102.824 86.3547 102.656 86.4852 102.582 86.6344C102.544 86.7462 102.526 86.914 102.526 87.1377C102.526 87.4359 102.526 87.7342 102.526 88.0324C102.563 88.3307 102.582 88.7035 102.582 89.1509C102.582 92.2826 101.724 94.7991 100.009 96.7005C98.3316 98.6019 95.9828 99.7017 92.963 100C92.441 99.9627 91.9005 99.8136 91.3412 99.5526C90.782 99.2916 90.2414 98.9561 89.7195 98.546C89.2348 98.1359 88.806 97.6699 88.4332 97.1479C88.0604 96.6632 87.7994 96.1599 87.6503 95.638C87.6503 94.2213 87.9485 92.8791 88.5451 91.6115C89.1416 90.3066 89.9431 89.1695 90.9498 88.2002C91.9937 87.1936 93.2053 86.392 94.5848 85.7955C96.0015 85.1617 97.5301 84.7889 99.1705 84.677C99.1705 83.745 99.0773 82.8316 98.8908 81.9368C98.7044 81.042 98.4994 80.1845 98.2757 79.3643C98.0893 78.5069 97.9029 77.6866 97.7165 76.9037C97.5301 76.0835 97.4368 75.2819 97.4368 74.499C97.4368 73.4924 97.6419 72.5044 98.052 71.5351C98.4621 70.5285 99.0027 69.6151 99.6738 68.7949C100.345 67.9374 101.128 67.2104 102.023 66.6139C102.917 66.0173 103.849 65.6072 104.819 65.3835C105.229 65.4954 105.769 65.8309 106.44 66.3902C107.149 66.9121 107.839 67.5086 108.51 68.1797C109.181 68.8508 109.777 69.5405 110.299 70.2489C110.821 70.9199 111.138 71.4792 111.25 71.9266ZM92.7952 97.4275C93.69 97.0547 94.5288 96.5141 95.3118 95.8058C96.132 95.0974 96.8403 94.2958 97.4368 93.4011C98.0334 92.5063 98.4994 91.5556 98.8349 90.549C99.2077 89.5424 99.3942 88.5544 99.3942 87.5851C98.6485 87.6969 97.8283 88.0511 96.9335 88.6476C96.0388 89.2068 95.1999 89.8965 94.417 90.7167C93.6341 91.4997 92.9816 92.3199 92.4597 93.1774C91.9377 94.0349 91.6768 94.7805 91.6768 95.4143C91.6768 96.2345 92.0496 96.9056 92.7952 97.4275Z" fill="white"/>
<path d="M114.365 74.3872C114.365 73.7161 114.402 73.0823 114.477 72.4858C114.589 71.8893 114.794 71.386 115.092 70.9759C115.39 70.5285 115.8 70.1929 116.322 69.9692C116.844 69.7083 117.534 69.5778 118.391 69.5778C118.913 69.5778 119.491 69.6337 120.125 69.7456C120.796 69.8574 121.281 70.0624 121.579 70.3607C121.43 70.9945 121.299 71.5537 121.188 72.0384C121.113 72.5231 121.038 73.0637 120.964 73.6602C120.927 74.2194 120.889 74.9091 120.852 75.7293C120.815 76.5123 120.778 77.5375 120.74 78.8051C120.666 81.3403 120.535 83.6145 120.349 85.6277C120.2 87.6037 119.827 89.5796 119.23 91.5556C119.23 91.7047 119.286 91.7793 119.398 91.7793C119.957 91.3692 120.591 90.7727 121.299 89.9898C122.008 89.2068 122.753 88.3307 123.536 87.3614C124.319 86.3547 125.102 85.2922 125.885 84.1737C126.668 83.0553 127.395 81.9554 128.066 80.8743C128.961 79.3084 129.949 77.3511 131.03 75.0023C132.111 72.6535 133.006 70.137 133.714 67.4527C133.938 67.4527 134.218 67.5086 134.553 67.6205C134.926 67.695 135.28 67.8069 135.616 67.956C135.989 68.0679 136.306 68.1983 136.566 68.3475C136.865 68.4966 137.07 68.6271 137.182 68.7389C137.107 70.3421 136.716 71.9825 136.007 73.6602C135.336 75.3379 134.516 76.9596 133.547 78.5255C132.577 80.0913 131.552 81.564 130.471 82.9434C129.39 84.3229 128.402 85.5159 127.507 86.5225C125.717 88.6103 123.909 90.4744 122.082 92.1148C120.293 93.7552 118.149 95.3397 115.651 96.8683C114.682 96.4955 113.918 95.9922 113.358 95.3584C112.799 94.7619 112.52 94.1281 112.52 93.457C112.52 93.0096 112.613 92.5063 112.799 91.9471C113.023 91.3505 113.265 90.6049 113.526 89.7101C113.787 88.7781 114.011 87.6223 114.197 86.2429C114.421 84.8635 114.533 83.1112 114.533 80.9861C114.533 79.7558 114.495 78.5255 114.421 77.2952C114.384 76.0276 114.365 75.0583 114.365 74.3872Z" fill="white"/>
<path d="M156.377 71.0318C156.228 73.3433 155.818 75.3379 155.147 77.0156C154.475 78.656 153.506 80.11 152.239 81.3776C151.008 82.6079 149.498 83.7263 147.709 84.733C145.919 85.7396 143.831 86.7089 141.445 87.641C141.445 87.8647 141.427 88.107 141.389 88.368C141.389 88.5917 141.389 88.834 141.389 89.095C141.389 89.5796 141.427 90.083 141.501 90.6049C141.576 91.1269 141.706 91.6115 141.893 92.0589C142.079 92.5063 142.34 92.8791 142.676 93.1774C143.011 93.4383 143.44 93.5688 143.962 93.5688C144.969 93.5688 145.956 93.3451 146.926 92.8978C147.895 92.4504 148.809 91.9098 149.666 91.276C150.561 90.6049 151.381 89.8965 152.127 89.1509C152.91 88.368 153.599 87.6596 154.196 87.0258C154.569 87.3614 154.886 87.6783 155.147 87.9765C153.469 90.2134 151.623 92.0775 149.61 93.5688C147.634 95.0228 145.751 95.9549 143.962 96.365C141.389 96.0667 139.376 95.1347 137.922 93.5688C136.505 91.9657 135.797 90.0457 135.797 87.8087C135.797 86.2802 136.002 84.733 136.412 83.1671C136.86 81.564 137.456 80.0354 138.202 78.5814C138.985 77.0901 139.88 75.692 140.886 74.3872C141.93 73.0823 143.03 71.9452 144.186 70.9759C145.379 70.0065 146.59 69.2422 147.821 68.683C149.088 68.1238 150.337 67.8442 151.567 67.8442C153.282 68.0679 154.886 69.1304 156.377 71.0318ZM152.518 72.8773C151.512 73.0264 150.468 73.4365 149.386 74.1076C148.305 74.7786 147.28 75.6734 146.311 76.7919C145.379 77.9103 144.521 79.2152 143.738 80.7065C142.955 82.1978 142.34 83.8009 141.893 85.5159C144.875 84.0246 147.355 82.1978 149.331 80.0354C151.306 77.8358 152.369 75.4497 152.518 72.8773Z" fill="white"/>
<path d="M161.883 72.7654C161.697 72.5417 161.529 72.0757 161.38 71.3673C161.231 70.6217 161.156 69.9879 161.156 69.4659C162.125 69.5405 163.057 69.6151 163.952 69.6896C164.847 69.7269 165.667 69.7642 166.413 69.8015C166.972 68.683 167.569 67.5832 168.202 66.502C168.873 65.3835 169.507 64.3769 170.104 63.4821C170.738 62.5501 171.315 61.7672 171.837 61.1334C172.397 60.4996 172.825 60.0895 173.124 59.9031C173.496 59.9031 173.963 59.9776 174.522 60.1268C175.118 60.2386 175.715 60.4064 176.311 60.6301C176.908 60.8165 177.448 61.0215 177.933 61.2452C178.418 61.4689 178.753 61.6926 178.94 61.9163C177.821 63.333 176.852 64.6565 176.032 65.8868C175.249 67.0799 174.391 68.4593 173.459 70.0252C174.205 70.0252 174.95 70.0065 175.696 69.9692C176.479 69.932 177.262 69.876 178.045 69.8015C178.231 69.9879 178.38 70.2302 178.492 70.5285C178.604 70.7895 178.66 71.0691 178.66 71.3673C176.833 72.0384 174.615 72.4112 172.005 72.4858C171.073 74.2753 170.234 76.0649 169.489 77.8544C168.78 79.6067 168.165 81.303 167.643 82.9434C167.159 84.5838 166.767 86.1311 166.469 87.5851C166.208 89.0391 166.077 90.3439 166.077 91.4997C166.077 93.1401 166.692 94.0535 167.923 94.2399C169.041 94.0908 170.104 93.8112 171.11 93.4011C172.117 92.991 173.012 92.469 173.795 91.8352C174.018 92.1708 174.149 92.4504 174.186 92.6741C173.963 93.0096 173.571 93.4011 173.012 93.8484C172.49 94.2958 171.912 94.7246 171.278 95.1347C170.644 95.5821 170.029 95.9549 169.433 96.2532C168.836 96.5514 168.389 96.7192 168.091 96.7565C167.159 96.7192 166.226 96.5141 165.294 96.1413C164.362 95.7685 163.505 95.3024 162.722 94.7432C161.976 94.184 161.361 93.5688 160.876 92.8978C160.392 92.1894 160.149 91.4997 160.149 90.8286C160.149 89.9338 160.261 88.8154 160.485 87.4732C160.746 86.0938 161.1 84.6025 161.548 82.9994C161.995 81.3962 162.517 79.7185 163.113 77.9663C163.71 76.214 164.362 74.4804 165.071 72.7654H161.883Z" fill="white"/>
</svg>
