<svg width="180" height="100" viewBox="0 0 180 100" fill="none" xmlns="http://www.w3.org/2000/svg">
<path d="M95.7211 24.9977C95.5347 24.774 95.367 24.3079 95.2178 23.5996C95.0687 22.8539 94.9941 22.2201 94.9941 21.6982C95.9635 21.7728 96.8955 21.8473 97.7903 21.9219C98.6851 21.9592 99.5053 21.9965 100.251 22.0337C100.81 20.9153 101.407 19.8155 102.04 18.7343C102.712 17.6158 103.345 16.6092 103.942 15.7144C104.576 14.7824 105.154 13.9994 105.675 13.3656C106.235 12.7318 106.663 12.3217 106.962 12.1353C107.335 12.1353 107.801 12.2099 108.36 12.359C108.956 12.4709 109.553 12.6386 110.149 12.8623C110.746 13.0487 111.286 13.2538 111.771 13.4775C112.256 13.7012 112.591 13.9249 112.778 14.1486C111.659 15.5653 110.69 16.8888 109.87 18.1191C109.087 19.3121 108.229 20.6916 107.297 22.2574C108.043 22.2574 108.789 22.2388 109.534 22.2015C110.317 22.1642 111.1 22.1083 111.883 22.0337C112.069 22.2201 112.218 22.4625 112.33 22.7607C112.442 23.0217 112.498 23.3013 112.498 23.5996C110.671 24.2707 108.453 24.6435 105.843 24.7181C104.911 26.5076 104.072 28.2971 103.327 30.0867C102.618 31.8389 102.003 33.5353 101.481 35.1757C100.997 36.8161 100.605 38.3633 100.307 39.8173C100.046 41.2713 99.9154 42.5762 99.9154 43.7319C99.9154 45.3724 100.531 46.2858 101.761 46.4722C102.879 46.323 103.942 46.0434 104.948 45.6333C105.955 45.2232 106.85 44.7013 107.633 44.0675C107.856 44.403 107.987 44.6826 108.024 44.9063C107.801 45.2419 107.409 45.6333 106.85 46.0807C106.328 46.5281 105.75 46.9568 105.116 47.367C104.482 47.8143 103.867 48.1872 103.271 48.4854C102.674 48.7837 102.227 48.9514 101.929 48.9887C100.997 48.9514 100.065 48.7464 99.1325 48.3736C98.2004 48.0007 97.3429 47.5347 96.56 46.9755C95.8143 46.4163 95.1992 45.8011 94.7145 45.13C94.2299 44.4217 93.9875 43.7319 93.9875 43.0609C93.9875 42.1661 94.0994 41.0476 94.3231 39.7055C94.584 38.326 94.9382 36.8347 95.3856 35.2316C95.833 33.6285 96.3549 31.9508 96.9515 30.1985C97.548 28.4463 98.2004 26.7126 98.9088 24.9977H95.7211Z" fill="#F2BF5B"/>
<path d="M131.376 24.1588C131.338 24.8672 131.208 25.6128 130.984 26.3958C130.798 27.1414 130.555 27.8311 130.257 28.4649C129.959 29.0614 129.642 29.5647 129.307 29.9748C128.971 30.3849 128.654 30.59 128.356 30.59C127.946 30.5527 127.703 30.2731 127.629 29.7511C127.629 29.6393 127.666 29.4715 127.741 29.2478C127.853 28.9869 127.964 28.7072 128.076 28.409C128.188 28.1107 128.281 27.8125 128.356 27.5142C128.468 27.216 128.524 26.955 128.524 26.7313C128.524 26.2093 128.393 25.7806 128.132 25.4451C127.908 25.0722 127.592 24.8858 127.181 24.8858C125.69 24.8858 124.553 25.8179 123.77 27.682C122.987 29.5461 122.596 32.2863 122.596 35.9027C122.596 36.2755 122.614 36.4992 122.652 36.5738C123.435 36.5365 124.124 36.5178 124.721 36.5178C125.355 36.4806 125.97 36.4619 126.566 36.4619C126.604 36.5365 126.622 36.6856 126.622 36.9093C126.622 37.2449 126.548 37.4872 126.399 37.6363C125.541 37.8227 124.851 37.9905 124.329 38.1396C123.845 38.2515 123.472 38.3633 123.211 38.4752C122.95 38.587 122.782 38.7175 122.708 38.8666C122.67 38.9785 122.652 39.1462 122.652 39.3699C122.652 39.6682 122.652 39.9664 122.652 40.2647C122.689 40.563 122.708 40.9358 122.708 41.3832C122.708 44.5149 121.85 47.0314 120.135 48.9328C118.457 50.8342 116.109 51.934 113.089 52.2323C112.567 52.195 112.026 52.0459 111.467 51.7849C110.908 51.5239 110.367 51.1884 109.845 50.7783C109.361 50.3682 108.932 49.9021 108.559 49.3802C108.186 48.8955 107.925 48.3922 107.776 47.8703C107.776 46.4535 108.074 45.1114 108.671 43.8438C109.267 42.5389 110.069 41.4018 111.076 40.4325C112.119 39.4259 113.331 38.6243 114.711 38.0278C116.127 37.394 117.656 37.0212 119.296 36.9093C119.296 35.9773 119.203 35.0638 119.017 34.1691C118.83 33.2743 118.625 32.4168 118.401 31.5966C118.215 30.7391 118.029 29.9189 117.842 29.136C117.656 28.3158 117.563 27.5142 117.563 26.7313C117.563 25.7247 117.768 24.7367 118.178 23.7674C118.588 22.7607 119.129 21.8473 119.8 21.0271C120.471 20.1696 121.254 19.4426 122.148 18.8461C123.043 18.2496 123.975 17.8395 124.945 17.6158C125.355 17.7277 125.895 18.0632 126.566 18.6224C127.275 19.1444 127.964 19.7409 128.635 20.412C129.307 21.083 129.903 21.7728 130.425 22.4811C130.947 23.1522 131.264 23.7114 131.376 24.1588ZM112.921 49.6598C113.816 49.287 114.655 48.7464 115.438 48.038C116.258 47.3297 116.966 46.5281 117.563 45.6333C118.159 44.7386 118.625 43.7879 118.961 42.7812C119.334 41.7746 119.52 40.7867 119.52 39.8173C118.774 39.9292 117.954 40.2833 117.059 40.8799C116.165 41.4391 115.326 42.1288 114.543 42.949C113.76 43.7319 113.107 44.5521 112.585 45.4096C112.064 46.2671 111.803 47.0128 111.803 47.6466C111.803 48.4668 112.175 49.1378 112.921 49.6598Z" fill="#F2BF5B"/>
<path d="M151.436 23.264C151.286 25.5755 150.876 27.5701 150.205 29.2478C149.534 30.8882 148.565 32.3423 147.297 33.6098C146.067 34.8402 144.557 35.9586 142.767 36.9652C140.978 37.9719 138.89 38.9412 136.504 39.8732C136.504 40.0969 136.485 40.3393 136.448 40.6002C136.448 40.8239 136.448 41.0663 136.448 41.3272C136.448 41.8119 136.485 42.3152 136.56 42.8372C136.635 43.3591 136.765 43.8438 136.951 44.2912C137.138 44.7386 137.399 45.1114 137.734 45.4096C138.07 45.6706 138.499 45.8011 139.021 45.8011C140.027 45.8011 141.015 45.5774 141.984 45.13C142.954 44.6826 143.867 44.142 144.725 43.5082C145.619 42.8372 146.44 42.1288 147.185 41.3832C147.968 40.6002 148.658 39.8919 149.255 39.2581C149.627 39.5936 149.944 39.9105 150.205 40.2088C148.527 42.4457 146.682 44.3098 144.669 45.8011C142.693 47.2551 140.81 48.1872 139.021 48.5973C136.448 48.299 134.435 47.3669 132.981 45.8011C131.564 44.198 130.856 42.2779 130.856 40.041C130.856 38.5124 131.061 36.9652 131.471 35.3994C131.918 33.7963 132.515 32.2677 133.26 30.8137C134.043 29.3224 134.938 27.9243 135.945 26.6194C136.989 25.3146 138.089 24.1775 139.244 23.2081C140.437 22.2388 141.649 21.4745 142.879 20.9153C144.147 20.356 145.396 20.0764 146.626 20.0764C148.341 20.3001 149.944 21.3627 151.436 23.264ZM147.577 25.1095C146.57 25.2586 145.526 25.6688 144.445 26.3398C143.364 27.0109 142.339 27.9057 141.369 29.0241C140.437 30.1426 139.58 31.4475 138.797 32.9388C138.014 34.43 137.399 36.0332 136.951 37.7482C139.934 36.2569 142.413 34.43 144.389 32.2677C146.365 30.068 147.428 27.682 147.577 25.1095Z" fill="#F2BF5B"/>
<path d="M156.718 26.6194C156.718 25.9484 156.755 25.3146 156.83 24.7181C156.942 24.1215 157.147 23.6182 157.445 23.2081C157.743 22.7607 158.153 22.4252 158.675 22.2015C159.197 21.9405 159.887 21.81 160.745 21.81C161.266 21.81 161.844 21.866 162.478 21.9778C163.149 22.0897 163.634 22.2947 163.932 22.593C163.783 23.2268 163.653 23.786 163.541 24.2707C163.466 24.7553 163.392 25.2959 163.317 25.8924C163.28 26.4517 163.242 27.1414 163.205 27.9616C163.168 28.7445 163.131 29.7698 163.093 31.0374C163.019 33.5726 162.888 35.8468 162.702 37.86C162.553 39.836 162.18 41.8119 161.583 43.7879C161.583 43.937 161.639 44.0116 161.751 44.0116C162.31 43.6015 162.944 43.0049 163.653 42.222C164.361 41.4391 165.107 40.563 165.889 39.5936C166.672 38.587 167.455 37.5245 168.238 36.406C169.021 35.2875 169.748 34.1877 170.419 33.1065C171.314 31.5407 172.302 29.5834 173.383 27.2346C174.464 24.8858 175.359 22.3693 176.067 19.685C176.291 19.685 176.571 19.7409 176.906 19.8527C177.279 19.9273 177.633 20.0391 177.969 20.1883C178.342 20.3001 178.659 20.4306 178.92 20.5797C179.218 20.7289 179.423 20.8594 179.535 20.9712C179.46 22.5743 179.069 24.2147 178.36 25.8924C177.689 27.5701 176.869 29.1919 175.9 30.7578C174.93 32.3236 173.905 33.7963 172.824 35.1757C171.743 36.5551 170.755 37.7482 169.86 38.7548C168.07 40.8426 166.262 42.7067 164.435 44.3471C162.646 45.9875 160.502 47.572 158.004 49.1006C157.035 48.7277 156.271 48.2244 155.711 47.5906C155.152 46.9941 154.873 46.3603 154.873 45.6893C154.873 45.2419 154.966 44.7386 155.152 44.1793C155.376 43.5828 155.618 42.8372 155.879 41.9424C156.14 41.0103 156.364 39.8546 156.55 38.4752C156.774 37.0957 156.886 35.3435 156.886 33.2184C156.886 31.9881 156.849 30.7578 156.774 29.5275C156.737 28.2599 156.718 27.2905 156.718 26.6194Z" fill="#F2BF5B"/>
<path d="M18.5844 8.77994C16.944 10.9796 15.4527 13.4029 14.1106 16.05C12.7684 18.697 11.6127 21.4186 10.6433 24.2147C9.71127 26.9736 8.98427 29.7139 8.46232 32.4355C7.97765 35.1198 7.73532 37.6363 7.73532 39.9851C7.73532 42.8931 8.16406 44.9995 9.02155 46.3044C9.87904 47.6093 11.3517 48.2617 13.4395 48.2617C15.8628 48.2617 17.9879 47.4229 19.8147 45.7452C21.6416 44.0302 23.3565 41.6814 24.9597 38.6989C26.0036 36.7602 26.8983 34.6351 27.644 32.3236C28.3896 30.0121 28.9861 27.6447 29.4335 25.2214C29.9182 22.7607 30.2724 20.3001 30.4961 17.8395C30.7198 15.3416 30.8316 12.9555 30.8316 10.6813C30.8316 9.22733 30.813 8.16479 30.7757 7.49371C30.7384 6.82263 30.6825 6.28204 30.6079 5.87194C30.7198 5.87194 30.9994 5.90922 31.4468 5.98378C31.8941 6.05835 32.3974 6.15155 32.9567 6.2634C33.5532 6.37524 34.1311 6.52437 34.6903 6.71078C35.2868 6.89719 35.7901 7.10225 36.2002 7.32594C36.0138 10.1594 35.6596 13.086 35.1377 16.1059C34.653 19.1257 34.0006 22.1083 33.1804 25.0536C32.3602 27.9989 31.4095 30.8323 30.3283 33.5539C29.2471 36.2755 28.0354 38.7175 26.6933 40.8799C24.7173 44.0861 22.499 46.584 20.0384 48.3736C17.5778 50.2004 14.6698 51.1138 11.3144 51.1138C7.88445 51.1138 5.21877 50.1072 3.31738 48.094C1.416 46.118 0.465302 43.0981 0.465302 39.0344C0.465302 36.6856 0.726276 34.0386 1.24823 31.0933C1.77018 28.1107 2.4599 25.0909 3.31738 22.0337C4.21216 18.9393 5.23741 15.9381 6.39316 13.0301C7.54891 10.0848 8.76058 7.45643 10.0282 5.14493C10.662 5.18222 11.4076 5.3127 12.2651 5.5364C13.1226 5.76009 13.9614 6.05835 14.7816 6.43117C15.6018 6.76671 16.3475 7.15817 17.0186 7.60556C17.7269 8.01566 18.2489 8.40712 18.5844 8.77994Z" fill="#F2BF5B"/>
<path d="M54.19 24.1588C54.1527 24.8672 54.0222 25.6128 53.7986 26.3958C53.6121 27.1414 53.3698 27.8311 53.0716 28.4649C52.7733 29.0614 52.4564 29.5647 52.1209 29.9748C51.7853 30.3849 51.4684 30.59 51.1702 30.59C50.7601 30.5527 50.5177 30.2731 50.4432 29.7511C50.4432 29.6393 50.4804 29.4715 50.555 29.2478C50.6669 28.9869 50.7787 28.7072 50.8905 28.409C51.0024 28.1107 51.0956 27.8125 51.1702 27.5142C51.282 27.216 51.3379 26.955 51.3379 26.7313C51.3379 26.2093 51.2074 25.7806 50.9465 25.4451C50.7228 25.0722 50.4059 24.8858 49.9958 24.8858C48.5045 24.8858 47.3674 25.8179 46.5845 27.682C45.8015 29.5461 45.4101 32.2863 45.4101 35.9027C45.4101 36.2755 45.4287 36.4992 45.466 36.5738C46.2489 36.5365 46.9386 36.5178 47.5352 36.5178C48.169 36.4806 48.7841 36.4619 49.3806 36.4619C49.4179 36.5365 49.4365 36.6856 49.4365 36.9093C49.4365 37.2449 49.362 37.4872 49.2129 37.6363C48.3554 37.8227 47.6656 37.9905 47.1437 38.1396C46.659 38.2515 46.2862 38.3633 46.0252 38.4752C45.7643 38.587 45.5965 38.7175 45.5219 38.8666C45.4846 38.9785 45.466 39.1462 45.466 39.3699C45.466 39.6682 45.466 39.9664 45.466 40.2647C45.5033 40.563 45.5219 40.9358 45.5219 41.3832C45.5219 44.5149 44.6644 47.0314 42.9495 48.9328C41.2718 50.8342 38.923 51.934 35.9031 52.2323C35.3812 52.195 34.8406 52.0459 34.2814 51.7849C33.7221 51.5239 33.1815 51.1884 32.6596 50.7783C32.1749 50.3682 31.7462 49.9021 31.3734 49.3802C31.0005 48.8955 30.7396 48.3922 30.5904 47.8703C30.5904 46.4535 30.8887 45.1114 31.4852 43.8438C32.0817 42.5389 32.8833 41.4018 33.8899 40.4325C34.9338 39.4259 36.1455 38.6243 37.5249 38.0278C38.9416 37.394 40.4702 37.0212 42.1106 36.9093C42.1106 35.9773 42.0174 35.0638 41.831 34.1691C41.6446 33.2743 41.4395 32.4168 41.2158 31.5966C41.0294 30.7391 40.843 29.9189 40.6566 29.136C40.4702 28.3158 40.377 27.5142 40.377 26.7313C40.377 25.7247 40.582 24.7367 40.9921 23.7674C41.4022 22.7607 41.9428 21.8473 42.6139 21.0271C43.285 20.1696 44.0679 19.4426 44.9627 18.8461C45.8575 18.2496 46.7895 17.8395 47.7589 17.6158C48.169 17.7277 48.7095 18.0632 49.3806 18.6224C50.089 19.1444 50.7787 19.7409 51.4498 20.412C52.1209 21.083 52.7174 21.7728 53.2393 22.4811C53.7613 23.1522 54.0782 23.7114 54.19 24.1588ZM35.7354 49.6598C36.6301 49.287 37.469 48.7464 38.2519 48.038C39.0721 47.3297 39.7805 46.5281 40.377 45.6333C40.9735 44.7386 41.4395 43.7879 41.7751 42.7812C42.1479 41.7746 42.3343 40.7867 42.3343 39.8173C41.5887 39.9292 40.7685 40.2833 39.8737 40.8799C38.9789 41.4391 38.1401 42.1288 37.3571 42.949C36.5742 43.7319 35.9218 44.5521 35.3998 45.4096C34.8779 46.2671 34.6169 47.0128 34.6169 47.6466C34.6169 48.4668 34.9897 49.1378 35.7354 49.6598Z" fill="#F2BF5B"/>
<path d="M60.8283 48.3736C58.7032 48.1499 57.0069 47.2178 55.7393 45.5774C54.4717 43.937 53.8379 41.8492 53.8379 39.314C53.8379 37.8227 54.0616 36.2755 54.509 34.6724C54.9563 33.0693 55.5901 31.522 56.4103 30.0308C57.2305 28.5022 58.1999 27.0668 59.3184 25.7247C60.4368 24.3825 61.6485 23.2268 62.9534 22.2574C65.0039 20.7289 66.9239 19.9646 68.7134 19.9646C69.9065 20.5984 71.0809 21.9219 72.2366 23.9351C72.423 23.9351 72.5908 23.9351 72.7399 23.9351C72.889 23.8978 73.0568 23.8792 73.2432 23.8792C75.2192 23.8792 76.2072 25.6315 76.2072 29.136C76.2072 31.4848 75.8157 33.7217 75.0328 35.8468C74.2871 37.9346 73.2246 39.836 71.8451 41.5509C70.503 43.2659 68.8812 44.7199 66.9798 45.9129C65.1157 47.0687 63.0652 47.8889 60.8283 48.3736ZM63.6804 30.7578C63.0466 31.6152 62.4501 32.5473 61.8908 33.5539C61.3316 34.5605 60.8469 35.5858 60.4368 36.6297C60.0267 37.6363 59.7098 38.6243 59.4861 39.5936C59.2624 40.5257 59.1506 41.3645 59.1506 42.1102C59.1506 43.0049 59.2997 43.8624 59.598 44.6826C59.8962 45.5028 60.2318 45.9689 60.6046 46.0807C62.2823 45.7079 63.8108 45.0182 65.1903 44.0116C66.607 42.9677 67.8187 41.6814 68.8253 40.1529C69.8692 38.6243 70.6708 36.8907 71.23 34.952C71.8265 33.0133 72.1248 30.9442 72.1248 28.7445C72.1248 27.7752 72.0688 27.0109 71.957 26.4517C71.8451 25.8924 71.6587 25.4078 71.3978 24.9977C69.7573 25.4823 68.2847 26.2653 66.9798 27.3464C65.7122 28.4276 64.6124 29.5647 63.6804 30.7578Z" fill="#F2BF5B"/>
<path d="M78.8583 42.8372C78.8583 41.1968 79.2497 38.9039 80.0327 35.9586C80.8156 32.976 81.9154 29.5088 83.3321 25.5569C85.6436 19.2562 87.806 14.0181 89.8192 9.84248C91.8697 5.6296 93.8643 2.34878 95.803 0C96.2504 0.0745633 96.791 0.260974 97.4248 0.559231C98.0958 0.857489 98.7483 1.19303 99.3821 1.56585C100.016 1.90139 100.575 2.25557 101.06 2.62839C101.582 3.00121 101.917 3.29947 102.066 3.52316C99.1584 6.95312 96.6046 10.6441 94.4049 14.596C92.2053 18.5479 90.192 23.0776 88.3652 28.1853C86.7994 32.5846 85.6063 36.5551 84.7861 40.0969C83.9659 43.6015 83.5558 46.5281 83.5558 48.8769C83.5558 49.5107 83.5558 49.9021 83.5558 50.0513C83.5558 50.2004 83.5745 50.3495 83.6117 50.4986C83.0898 50.4241 82.6424 50.2936 82.2696 50.1072C81.8968 49.9208 81.6544 49.6971 81.5426 49.4361C81.468 49.2497 81.263 48.9701 80.9274 48.5973C80.5919 48.2617 80.2936 48.0007 80.0327 47.8143C79.6971 47.5906 79.4175 47.0128 79.1938 46.0807C78.9701 45.1114 78.8583 44.0302 78.8583 42.8372Z" fill="#F2BF5B"/>
<path d="M82.2084 66.2292C88.3018 62.5645 108.528 51.7047 139.126 53.8273C155.221 54.9438 172.074 57.8824 179.387 61.8933C168.046 59.9387 162.493 56.616 138.965 56.1518C107.921 54.6061 92.2491 67.5096 84.3718 71.6346C82.3565 72.69 80.2588 67.4016 82.2084 66.2292Z" fill="#F2BF5B"/>
<path d="M111.715 71.9266C111.678 72.6349 111.547 73.3806 111.324 74.1635C111.137 74.9091 110.895 75.5988 110.597 76.2326C110.298 76.8291 109.982 77.3325 109.646 77.7426C109.31 78.1527 108.994 78.3577 108.695 78.3577C108.285 78.3204 108.043 78.0408 107.968 77.5189C107.968 77.407 108.006 77.2393 108.08 77.0156C108.192 76.7546 108.304 76.475 108.416 76.1767C108.528 75.8785 108.621 75.5802 108.695 75.2819C108.807 74.9837 108.863 74.7227 108.863 74.499C108.863 73.9771 108.733 73.5483 108.472 73.2128C108.248 72.84 107.931 72.6536 107.521 72.6536C106.03 72.6536 104.893 73.5856 104.11 75.4497C103.327 77.3138 102.935 80.0541 102.935 83.6704C102.935 84.0432 102.954 84.2669 102.991 84.3415C103.774 84.3042 104.464 84.2856 105.06 84.2856C105.694 84.2483 106.309 84.2297 106.906 84.2297C106.943 84.3042 106.962 84.4533 106.962 84.677C106.962 85.0126 106.887 85.2549 106.738 85.404C105.881 85.5905 105.191 85.7582 104.669 85.9073C104.184 86.0192 103.811 86.131 103.55 86.2429C103.289 86.3547 103.122 86.4852 103.047 86.6344C103.01 86.7462 102.991 86.914 102.991 87.1377C102.991 87.4359 102.991 87.7342 102.991 88.0324C103.028 88.3307 103.047 88.7035 103.047 89.1509C103.047 92.2826 102.19 94.7991 100.475 96.7005C98.7969 98.6019 96.4482 99.7017 93.4283 100C92.9063 99.9627 92.3658 99.8136 91.8065 99.5526C91.2473 99.2916 90.7067 98.9561 90.1848 98.546C89.7001 98.1359 89.2713 97.6699 88.8985 97.1479C88.5257 96.6632 88.2647 96.1599 88.1156 95.638C88.1156 94.2213 88.4138 92.8791 89.0104 91.6115C89.6069 90.3066 90.4084 89.1695 91.4151 88.2002C92.459 87.1936 93.6706 86.392 95.0501 85.7955C96.4668 85.1617 97.9954 84.7889 99.6358 84.677C99.6358 83.745 99.5426 82.8316 99.3561 81.9368C99.1697 81.042 98.9647 80.1845 98.741 79.3643C98.5546 78.5069 98.3682 77.6866 98.1818 76.9037C97.9954 76.0835 97.9021 75.2819 97.9021 74.499C97.9021 73.4924 98.1072 72.5044 98.5173 71.5351C98.9274 70.5285 99.468 69.6151 100.139 68.7949C100.81 67.9374 101.593 67.2104 102.488 66.6139C103.383 66.0173 104.315 65.6072 105.284 65.3835C105.694 65.4954 106.235 65.8309 106.906 66.3902C107.614 66.9121 108.304 67.5086 108.975 68.1797C109.646 68.8508 110.243 69.5405 110.764 70.2489C111.286 70.9199 111.603 71.4792 111.715 71.9266ZM93.2605 97.4275C94.1553 97.0547 94.9941 96.5141 95.7771 95.8058C96.5973 95.0974 97.3056 94.2958 97.9021 93.4011C98.4987 92.5063 98.9647 91.5556 99.3002 90.549C99.673 89.5424 99.8595 88.5544 99.8595 87.5851C99.1138 87.6969 98.2936 88.0511 97.3988 88.6476C96.5041 89.2068 95.6652 89.8965 94.8823 90.7167C94.0994 91.4997 93.4469 92.3199 92.925 93.1774C92.403 94.0349 92.1421 94.7805 92.1421 95.4143C92.1421 96.2345 92.5149 96.9056 93.2605 97.4275Z" fill="#F2BF5B"/>
<path d="M114.83 74.3872C114.83 73.7161 114.868 73.0823 114.942 72.4858C115.054 71.8893 115.259 71.386 115.557 70.9759C115.856 70.5285 116.266 70.1929 116.788 69.9692C117.31 69.7083 117.999 69.5778 118.857 69.5778C119.379 69.5778 119.957 69.6337 120.59 69.7456C121.261 69.8574 121.746 70.0624 122.044 70.3607C121.895 70.9945 121.765 71.5537 121.653 72.0384C121.578 72.5231 121.504 73.0637 121.429 73.6602C121.392 74.2194 121.355 74.9091 121.317 75.7293C121.28 76.5123 121.243 77.5375 121.206 78.8051C121.131 81.3403 121 83.6145 120.814 85.6277C120.665 87.6037 120.292 89.5796 119.696 91.5556C119.696 91.7047 119.752 91.7793 119.863 91.7793C120.423 91.3692 121.056 90.7727 121.765 89.9898C122.473 89.2068 123.219 88.3307 124.002 87.3614C124.785 86.3547 125.568 85.2922 126.35 84.1737C127.133 83.0553 127.86 81.9554 128.531 80.8743C129.426 79.3084 130.414 77.3511 131.495 75.0023C132.577 72.6535 133.471 70.137 134.18 67.4527C134.403 67.4527 134.683 67.5086 135.019 67.6205C135.391 67.695 135.746 67.8069 136.081 67.956C136.454 68.0679 136.771 68.1983 137.032 68.3475C137.33 68.4966 137.535 68.6271 137.647 68.7389C137.572 70.3421 137.181 71.9825 136.473 73.6602C135.801 75.3379 134.981 76.9596 134.012 78.5255C133.043 80.0913 132.017 81.564 130.936 82.9434C129.855 84.3229 128.867 85.5159 127.972 86.5225C126.183 88.6103 124.375 90.4744 122.548 92.1148C120.758 93.7552 118.614 95.3397 116.117 96.8683C115.147 96.4955 114.383 95.9922 113.824 95.3584C113.264 94.7619 112.985 94.1281 112.985 93.457C112.985 93.0096 113.078 92.5063 113.264 91.9471C113.488 91.3505 113.73 90.6049 113.991 89.7101C114.252 88.7781 114.476 87.6223 114.663 86.2429C114.886 84.8635 114.998 83.1112 114.998 80.9861C114.998 79.7558 114.961 78.5255 114.886 77.2952C114.849 76.0276 114.83 75.0583 114.83 74.3872Z" fill="#F2BF5B"/>
<path d="M156.842 71.0318C156.693 73.3433 156.283 75.3379 155.612 77.0156C154.941 78.656 153.971 80.11 152.704 81.3776C151.474 82.6079 149.964 83.7263 148.174 84.733C146.385 85.7396 144.297 86.7089 141.911 87.641C141.911 87.8647 141.892 88.107 141.855 88.368C141.855 88.5917 141.855 88.834 141.855 89.095C141.855 89.5796 141.892 90.083 141.967 90.6049C142.041 91.1269 142.172 91.6115 142.358 92.0589C142.544 92.5063 142.805 92.8791 143.141 93.1774C143.477 93.4383 143.905 93.5688 144.427 93.5688C145.434 93.5688 146.422 93.3451 147.391 92.8978C148.36 92.4504 149.274 91.9098 150.131 91.276C151.026 90.6049 151.846 89.8965 152.592 89.1509C153.375 88.368 154.065 87.6596 154.661 87.0258C155.034 87.3614 155.351 87.6783 155.612 87.9765C153.934 90.2134 152.089 92.0775 150.075 93.5688C148.099 95.0228 146.217 95.9549 144.427 96.365C141.855 96.0667 139.841 95.1347 138.387 93.5688C136.971 91.9657 136.262 90.0457 136.262 87.8087C136.262 86.2802 136.467 84.733 136.878 83.1671C137.325 81.564 137.921 80.0354 138.667 78.5814C139.45 77.0901 140.345 75.692 141.351 74.3872C142.395 73.0823 143.495 71.9452 144.651 70.9759C145.844 70.0065 147.056 69.2422 148.286 68.683C149.553 68.1238 150.802 67.8442 152.033 67.8442C153.748 68.0679 155.351 69.1304 156.842 71.0318ZM152.983 72.8773C151.977 73.0264 150.933 73.4365 149.852 74.1076C148.771 74.7786 147.745 75.6734 146.776 76.7919C145.844 77.9103 144.986 79.2152 144.204 80.7065C143.421 82.1978 142.805 83.8009 142.358 85.5159C145.341 84.0246 147.82 82.1978 149.796 80.0354C151.772 77.8358 152.834 75.4497 152.983 72.8773Z" fill="#F2BF5B"/>
<path d="M162.348 72.7654C162.162 72.5417 161.994 72.0757 161.845 71.3673C161.696 70.6217 161.621 69.9879 161.621 69.4659C162.591 69.5405 163.523 69.6151 164.418 69.6896C165.312 69.7269 166.133 69.7642 166.878 69.8015C167.437 68.683 168.034 67.5832 168.668 66.502C169.339 65.3835 169.973 64.3769 170.569 63.4821C171.203 62.5501 171.781 61.7672 172.303 61.1334C172.862 60.4996 173.291 60.0895 173.589 59.9031C173.962 59.9031 174.428 59.9776 174.987 60.1268C175.584 60.2386 176.18 60.4064 176.777 60.6301C177.373 60.8165 177.914 61.0215 178.398 61.2452C178.883 61.4689 179.219 61.6926 179.405 61.9163C178.286 63.333 177.317 64.6565 176.497 65.8868C175.714 67.0799 174.857 68.4593 173.924 70.0252C174.67 70.0252 175.416 70.0065 176.161 69.9692C176.944 69.932 177.727 69.876 178.51 69.8015C178.697 69.9879 178.846 70.2302 178.958 70.5285C179.069 70.7895 179.125 71.0691 179.125 71.3673C177.299 72.0384 175.08 72.4112 172.47 72.4858C171.538 74.2753 170.7 76.0649 169.954 77.8544C169.246 79.6067 168.63 81.303 168.108 82.9434C167.624 84.5838 167.232 86.1311 166.934 87.5851C166.673 89.0391 166.543 90.3439 166.543 91.4997C166.543 93.1401 167.158 94.0535 168.388 94.2399C169.507 94.0908 170.569 93.8112 171.576 93.4011C172.582 92.991 173.477 92.469 174.26 91.8352C174.484 92.1708 174.614 92.4504 174.652 92.6741C174.428 93.0096 174.036 93.4011 173.477 93.8484C172.955 94.2958 172.377 94.7246 171.743 95.1347C171.11 95.5821 170.495 95.9549 169.898 96.2532C169.302 96.5514 168.854 96.7192 168.556 96.7565C167.624 96.7192 166.692 96.5141 165.76 96.1413C164.828 95.7685 163.97 95.3024 163.187 94.7432C162.442 94.184 161.826 93.5688 161.342 92.8978C160.857 92.1894 160.615 91.4997 160.615 90.8286C160.615 89.9338 160.727 88.8154 160.95 87.4732C161.211 86.0938 161.565 84.6025 162.013 82.9994C162.46 81.3962 162.982 79.7185 163.579 77.9663C164.175 76.214 164.828 74.4804 165.536 72.7654H162.348Z" fill="#F2BF5B"/>
</svg>
