<svg width="1920" height="619" viewBox="0 0 1920 619" fill="none" xmlns="http://www.w3.org/2000/svg">
<g clip-path="url(#clip0_1_469)">
<path d="M1717.57 468.37V447.83H1716.25V446.49H1709.48V443.77H1710.86V442.44H1709.53V431.74H1704.13V430.45H1697.41V420.92H1685.41V404.92H1686.83V402.2H1673.33V404.87H1672V396.87H1664V392.77H1662.61V391.48H1657.31V392.86H1655.98V394.24H1653.35V404.98H1649.2V388.84H1650.63V387.5H1597.03V319.09H1566.05V337.89H1560.67V336.53H1558.05V353.93H1482.95V317.74H1472.23L1470.88 319.09V324.47H1469.53V321.78H1466.85V319.09H1464.18V321.79H1450.75V329.87H1449.45V324.47H1448.05V313.73H1308.8V301.64C1308.8 301.64 1290.12 278.88 1275.45 207.84C1260.78 136.8 1258.99 109.93 1258.99 109.93H1257.65V131.39H1258.99V138.09H1257.7V140.81H1256.36V143.44H1259.05L1275.13 324.37L1275.21 399.51H848.73V286.91H847.4V292.29H846.05C846.05 292.29 846.05 286.95 845.33 286.95C844.61 286.95 844.71 292.3 844.71 292.3H842.05V290.96C841.332 290.244 840.359 289.841 839.345 289.841C838.331 289.841 837.358 290.244 836.64 290.96V292.3H832.64C832.64 292.3 832.64 286.96 831.92 286.96C831.2 286.96 831.3 292.31 831.3 292.31H821.86V290.97C821.142 290.254 820.169 289.851 819.155 289.851C818.141 289.851 817.168 290.254 816.45 290.97V292.31H812.45C812.45 292.31 812.45 286.97 811.73 286.97C811.01 286.97 811.11 292.32 811.11 292.32H808.43V286.91H807.09V399.55H787.73V230.65H786.32V217.2L783.71 219.81V231.96H778.33V231.21C778.33 229.979 777.84 228.8 776.97 227.93C776.1 227.06 774.92 226.57 773.69 226.57H773.58C772.35 226.57 771.17 227.06 770.3 227.93C769.43 228.8 768.94 229.979 768.94 231.21V231.96H763.57V219.81L760.95 217.2V230.65H759.54V254.73H746.12V197.14H744.8V179.67L742.14 182.33V195.77H740.82V202.53H734.05V198.41L732.75 197.09H730.05V152.85L728.73 154.17V158.27H727.4V160.92H726.05V158.2H724.71V156.93H722.05L721.81 156.36C718.472 148.576 716.737 140.199 716.71 131.73V131.39C716.71 120.1 716.22 109.95 716.22 109.95H715.81C715.81 109.95 715.38 120.1 715.38 131.39C715.38 131.51 715.38 131.62 715.38 131.73C715.357 140.2 713.622 148.577 710.28 156.36L710.04 156.93H707.35V158.2H706.01V160.92H704.63V158.27H703.29V154.17L701.98 152.85V197.09H699.25L697.94 198.4V202.52H691.18V195.76H689.86V182.33L687.2 179.67V197.14H685.89V254.73H672.46V230.65H671.05V217.2L668.44 219.81V231.96H663.05V231.21C663.049 229.979 662.56 228.8 661.69 227.93C660.82 227.06 659.64 226.57 658.41 226.57H658.3C657.07 226.57 655.89 227.06 655.02 227.93C654.15 228.8 653.661 229.979 653.66 231.21V231.96H648.29V219.81L645.67 217.2V230.65H644.26V399.55H624.89V331.15H623.57L622.19 332.54V335.27H619.49V297.66H618.24V299.09H595.43V297.66H594.05V371.28H518.97V286.99H520.31V227.92H518.94V185.03H520.31V132.74H510.91V127.39H497.51V126.09H494.84V132.79H493.47V249.39H455.92C449.926 251.174 444.72 254.948 441.16 260.09H438.52C438.52 260.09 434.44 310.77 434.47 332.46H362.08V296.3H327.25V349.9H313.79V351.28H315.27V368.77H311.27V387.49H295.05V390.28H284.38V413.03H277.59V399.58H269.53V372.84H242.7V437.09H236.05V435.71H228.05V437.09H229.48V450.5H226.71V468.37H1717.57ZM715.77 109.95L712.63 107.5V104.99L713.48 105.84V107.5L715.77 109.16L715.96 107.5L716.18 109.16L718.44 107.5V105.84L719.29 104.99V107.5L716.18 109.95M715.96 103.88L717.19 107.73L713.95 105.27H717.95L714.74 107.74L715.96 103.88Z" fill="url(#paint0_linear_1_469)"/>
<path d="M1376.41 232.03C1376.41 231.45 1376.03 229.98 1376.03 229.42C1376.05 228.967 1376.09 228.516 1376.17 228.07C1376.72 228.47 1377.39 228.697 1378.07 228.72C1379.13 228.72 1380.71 229.85 1381.89 229.85C1382.28 229.88 1382.66 229.99 1383 230.174C1383.35 230.358 1383.65 230.612 1383.89 230.92C1383.72 231.522 1383.64 232.145 1383.65 232.77C1383.65 233.3 1383.96 234.33 1383.96 235.01C1383.96 235.411 1383.94 235.812 1383.89 236.21C1383.65 235.902 1383.35 235.648 1383 235.464C1382.66 235.28 1382.28 235.17 1381.89 235.14C1380.71 235.14 1379.67 234.01 1378.32 234.01C1377.55 234.03 1376.8 233.802 1376.17 233.36C1376.31 232.929 1376.39 232.482 1376.41 232.03ZM1482.98 324.46V468.37H327.26V256.02C327.26 248.64 333.19 241.5 340.58 241.48H350.05V239.99H354.05V241.36H358.05V399.56H362.05V139.56C376.76 126.46 396.8 125.44 414.41 135.92C416.053 136.89 417.486 138.179 418.625 139.711C419.763 141.243 420.585 142.987 421.04 144.84V150.23H423.65V399.55H459.95V324.49H463.95V268.23H461.28V207.9H463.95V142.14H469.33V135.46H485.33V142.09H494.76V206.49H493.38V261.49H497.38V316.41H526.32C526.16 307.803 526.077 298.437 526.07 288.31C526.07 215.6 530.88 195.81 530.88 195.81V194.39H533.6V195.74H568.44V194.4H571.11V195.81C572.889 200.24 573.812 204.967 573.83 209.74V211.82H580.37L580.43 217.35L585.83 217.29C585.83 217.29 592.54 310.44 592.54 371.51H595.22V399.56H614.05V344.66H627.48V299.03H631.4V297.66H655.57V298.99H659.68V399.55H666.39V354H681.18V345.93H700.05V332.48H721.35V340.63H724.2V339.29H734.8V344.64H750.98V340.54H749.55V329.89H750.98V325.79H872.98V319.11C872.98 319.11 882.36 301.29 882.36 289.64C882.36 285.1 882.81 262.79 882.81 262.79H879.66V260.09H882.86L883.67 225.22H885.01V222.55H882.33V221.24H885.01V218.48H881.01V217.2H879.61V215.89H882.34V209.18H881.04V206.54H885.04V186.49L886.4 185.13V179.7H885.02V174.34H886.38V171.63H885.02V168.93H886.4V144.81H885.02V142.14H883.64V134.14H885.02V127.46H883.68V123.4H886.35V115.34H884.97V112.69H886.35V105.96H885.02V101.96H886.4V93.85H883.68V88.55H882.34V83.19H883.68V72.41H885.02V71.09H886.35V61.73H887.69V45.6H889.04C890.41 45.6 889.96 0 889.96 0H890.05C890.05 0 890.27 45.6 891.63 45.6H893.05V61.76H894.39V71.09H895.72V72.38H897.05V83.19H898.39V88.54H897.05V93.84H894.33V101.95H895.71V105.95H894.38V112.68H895.76V115.31H894.38V123.37H897.05V127.43H895.71V134.09H897.05V142.09H895.67V144.76H894.29V168.88H895.67V171.58H894.31V174.29H895.67V179.65H894.29V185.09L895.65 186.45V206.5H899.65V209.14H898.35V215.85H901.08V217.19H899.68V218.47H895.68V221.23H898.36V222.54H895.68V225.21H897.05L897.86 260.08H901.05V262.73H897.91C897.91 262.73 898.35 285.04 898.35 289.58C898.35 301.23 907.73 319.05 907.73 319.05V399.49H1012.47L1012.41 293.56C1011.67 293.547 1010.97 293.243 1010.46 292.715C1009.94 292.187 1009.65 291.478 1009.66 290.74V286.91H1008.33V282.84H1011.05V277.54C1011.05 276.832 1011.19 276.131 1011.46 275.478C1011.73 274.824 1012.13 274.232 1012.64 273.736C1013.14 273.239 1013.74 272.849 1014.4 272.587C1015.06 272.325 1015.76 272.197 1016.47 272.21H1017.76V266.78H1023.11V249.34H1021.82V246.71H1020.48V243.99H1023.05V241.32C1020.83 241.32 1017.62 238.96 1017.62 233.18C1017.62 221.57 1033.79 207.25 1033.79 202.56C1033.8 200.032 1034.03 197.509 1034.48 195.02C1033.65 194.718 1032.94 194.148 1032.46 193.399C1031.99 192.65 1031.78 191.765 1031.86 190.882C1031.94 190 1032.32 189.171 1032.93 188.524C1033.53 187.877 1034.33 187.45 1035.21 187.31V183.01L1034.57 183.64L1033.86 182.95L1035.21 181.59V175.75H1031.05V174.75H1035.19V171.83H1036.19V174.74H1040.34V175.74H1036.2V180.58L1036.86 179.94L1037.56 180.65L1036.2 181.99V187.31C1037.05 187.46 1037.83 187.881 1038.42 188.512C1039.02 189.142 1039.39 189.947 1039.48 190.807C1039.58 191.666 1039.39 192.533 1038.95 193.278C1038.52 194.024 1037.85 194.606 1037.05 194.94C1037.52 197.45 1037.76 199.997 1037.77 202.55C1037.77 207.24 1053.95 221.55 1053.95 233.17C1053.95 238.95 1050.75 241.31 1048.52 241.31V243.98H1051.19V246.7H1049.85V249.33H1048.56V266.79H1055.22V274.86H1057.91V261.46H1066.05V256.09H1064.67V253.37H1067.3V249.37H1064.67V245.45H1068.67V244.09H1065.96V241.41H1063.28V240.03H1066L1068.73 237.3V229.3H1070.05V221.16H1071.36V213.26H1072.78V209.26H1074.05V203.88H1075.36V201.21H1076.69V199.78H1075.39V195.78H1074.05V193.09H1072.68V191.78H1070.05V189.09H1076.73L1091.44 139.46H1092.8V136.78H1094.17V135.42H1092.89V132.69H1091.47V130.09H1092.83V122.01H1091.47V120.67H1092.79V119.28H1091.5V116.66H1088.79V115.36H1091.5V112.63C1090.35 112.63 1088.78 111.54 1088.78 108.86C1088.78 104.16 1096.9 98.96 1096.9 95.69C1096.93 94.4556 1097.05 93.2251 1097.27 92.01C1096.75 91.8273 1096.31 91.4781 1096.01 91.0167C1095.71 90.5553 1095.57 90.0079 1095.62 89.4597C1095.66 88.9115 1095.88 88.3936 1096.25 87.9866C1096.62 87.5796 1097.12 87.3065 1097.66 87.21V74.92H1095.38V73.92H1097.66V72.37H1098.66V73.92H1100.97V74.92H1098.67C1098.67 74.92 1098.67 87.11 1098.67 87.22C1099.19 87.3386 1099.65 87.6188 1100 88.0202C1100.35 88.4215 1100.56 88.9231 1100.6 89.4523C1100.65 89.9814 1100.52 90.5107 1100.24 90.9633C1099.97 91.416 1099.55 91.7686 1099.06 91.97C1099.26 93.1973 1099.37 94.437 1099.4 95.68C1099.4 98.95 1107.53 104.15 1107.53 108.85C1107.53 111.53 1105.96 112.62 1104.81 112.62V115.35H1107.51V116.65H1104.81V119.27H1103.52V120.66H1104.83V122H1103.47V130.09H1104.84V132.7H1103.41V135.41H1102.05V136.77H1103.42V139.45H1104.79L1119.49 189.08H1126.17V191.78H1123.53V193.09H1122.16V195.73H1120.8V199.73H1119.49V201.16H1120.83V203.83H1122.13V209.21H1123.38V209.92C1126.05 206.8 1128.11 204.09 1128.11 202.51C1128.13 199.103 1128.56 195.712 1129.4 192.41C1128.7 192.109 1128.12 191.587 1127.74 190.924C1127.36 190.261 1127.21 189.493 1127.31 188.737C1127.41 187.981 1127.75 187.278 1128.29 186.735C1128.83 186.192 1129.53 185.839 1130.28 185.73V179.73L1129.07 180.73L1128.43 179.97L1130.28 178.41V171.61H1124.49V170.61H1130.27V167.17H1131.27V170.61H1137.05V171.61H1131.27V177.55L1132.48 176.55L1133.12 177.31L1131.27 178.88V185.7C1132.02 185.808 1132.72 186.158 1133.26 186.698C1133.79 187.238 1134.14 187.938 1134.24 188.692C1134.35 189.446 1134.2 190.212 1133.83 190.876C1133.46 191.54 1132.88 192.064 1132.18 192.37C1133.04 195.672 1133.48 199.068 1133.5 202.48C1133.5 207.28 1150.93 220.87 1154.72 233.2C1161.06 222.94 1173.66 212.93 1173.66 208.97C1173.68 206.179 1173.99 203.398 1174.58 200.67C1173.54 200.258 1172.67 199.509 1172.11 198.543C1171.54 197.577 1171.32 196.451 1171.47 195.343C1171.62 194.235 1172.14 193.21 1172.94 192.432C1173.75 191.654 1174.79 191.167 1175.9 191.05V187.57L1175.73 187.92L1174.84 187.47L1175.9 185.29V178.52H1173.13V177.52H1175.9V174.19H1176.9V177.56H1179.58V178.56H1176.89V183.27L1177.07 182.92L1177.96 183.35L1176.89 185.55V191.09C1178 191.204 1179.05 191.688 1179.85 192.465C1180.66 193.241 1181.18 194.266 1181.33 195.374C1181.49 196.483 1181.27 197.611 1180.7 198.578C1180.14 199.546 1179.27 200.296 1178.23 200.71C1178.86 203.433 1179.19 206.216 1179.23 209.01C1179.23 214.29 1201.72 230.4 1201.72 243.46C1201.72 249.96 1195.1 253.41 1192 253.41V265.48H1190.61V281.48L1191.98 282.9V285.57H1194.62L1196.02 286.91V289.56H1197.36V293.56H1198.72V296.24H1197.36V298.91L1195.96 298.97V329.74L1204.04 329.8V332.36L1198.63 332.48L1198.69 340.55H1201.38V341.88H1204.1V343.22H1208.1V351.22H1205.34V360.62H1217.48L1224.17 357.92V345.92H1229.52V316.41H1230.85V315.09H1234.92V308.39H1236.23L1247.34 255.09C1248.44 249.816 1249.15 244.468 1249.46 239.09C1248.7 238.901 1248.03 238.459 1247.56 237.836C1247.09 237.214 1246.85 236.45 1246.87 235.669C1246.89 234.889 1247.18 234.141 1247.69 233.548C1248.2 232.955 1248.89 232.553 1249.66 232.41V221.09H1247.18V220.09H1249.67V217.25H1251.05V220.09H1253.53V221.09H1251.05V232.52C1251.8 232.68 1252.48 233.088 1252.97 233.677C1253.46 234.267 1253.74 235.004 1253.76 235.772C1253.79 236.539 1253.55 237.292 1253.1 237.91C1252.64 238.528 1251.99 238.975 1251.25 239.18C1251.57 244.558 1252.27 249.905 1253.37 255.18L1264.46 308.44H1265.76V315.09H1269.83V316.46H1271.17V324.46H1295.35V329.85H1298.03V328.56H1306.03V329.85H1308.75V268.18H1312.83V266.85H1315.45V268.14H1319.45V266.83H1322.05V268.18H1326.05V266.83H1328.72V268.21H1332.72V262.79H1336.72V265.49H1369.05V249.38H1371.7V252.09H1374.38V227.92H1375.73V252.09H1378.43V249.37H1381.05V265.46H1413.26V262.76H1417.26V268.18H1421.26V266.8H1423.93V268.15H1428.05V266.8H1430.7V268.11H1434.7V266.82H1437.33V268.15H1441.4V329.82H1454.86V324.43L1482.98 324.46ZM1162.22 254.74C1159.53 254.74 1153.22 251.12 1151.62 245.92C1150.58 246.606 1149.37 246.987 1148.13 247.02V250.09H1151.76V253.21H1149.94V256.21H1148.19V272.21L1151.82 272.15V270.15C1151.82 269.028 1152.04 267.916 1152.46 266.879C1152.89 265.841 1153.52 264.899 1154.32 264.105C1155.11 263.312 1156.05 262.683 1157.09 262.255C1158.13 261.826 1159.24 261.607 1160.36 261.61V258.66H1158.5V255.6H1162.22V254.74Z" fill="url(#paint1_linear_1_469)"/>
<path d="M1517.81 173.82L1519.81 180.03L1514.59 176.03H1521.05L1515.87 180.03L1517.81 173.82ZM234.64 461.64C155.467 477.814 77.27 496.54 0.0499878 517.82C0.0499878 659 0.0499878 620.5 0.0499878 620.5H1920.05C1920.05 620.5 1920.05 712.97 1920.05 516.69C1850.42 497.62 1779.43 480.45 1708.19 465.5M1204.05 355.29V360.65H1153.13V355.29L1154.46 353.96H1163.89V349.9L1165.21 348.57H1166.58L1167.88 347.27H1169.26L1170.58 345.95V343.24H1171.91V341.9H1185.27V343.24H1186.6V345.95L1187.92 347.27H1189.3L1190.6 348.57H1191.97L1193.29 349.9V353.96H1202.72L1204.05 355.29ZM1184.05 344.57H1173.29V345.93H1184.03L1184.05 344.57ZM956.05 61.5703L960.59 75.8103L948.59 66.7203H963.35L951.47 75.8503L956.05 61.5703ZM997.99 325.81V324.46H998.49V325.81H997.99ZM1004.73 325.81V324.46H1005.23V325.81H1004.73ZM1011.48 325.81V324.46H1011.98V325.81H1011.48ZM1018.22 325.81V324.46H1018.72V325.81H1018.22ZM1024.96 325.81V324.46H1025.46V325.81H1024.96ZM1031.7 325.81V324.46H1032.2V325.81H1031.7ZM1055.7 325.81V324.46H1056.2V325.81H1055.7ZM1062.43 325.81V324.46H1062.93V325.81H1062.43ZM1069.15 325.81V324.46H1069.65V325.81H1069.15ZM1075.88 325.81V324.46H1076.38V325.81H1075.88ZM1082.61 325.81V324.46H1083.11V325.81H1082.61ZM1089.34 325.81V324.46H1089.84V325.81H1089.34ZM1096.07 325.81V324.46H1096.56V325.81H1096.07ZM1102.79 325.81V324.46H1103.29V325.81H1102.79ZM1708.22 465.48V431.73H1702.86V430.4H1689.46V431.74H1686.79V442.48H1684.05V404.92H1670.65V398.22H1665.27V395.57H1658.58V398.21H1657.25V404.98H1646.5L1645.14 403.63H1641.14V343.27L1639.85 344.57V349.97H1638.47V347.28L1637.16 345.96V316.48L1634.47 319.17V325.8H1633.13L1631.81 324.49V316.49L1630.45 315.13V312.44L1629.12 311.11H1627.76L1626.43 312.44V315.09L1625.07 316.45V324.45L1623.76 325.76H1622.41V319.13L1619.72 316.44V345.92L1618.41 347.24V349.93H1617.05V344.53L1615.75 343.23V354.09H1568.75V345.36L1567.41 345.98L1566.07 344.64L1565.39 340.64L1564.71 344.64L1563.37 345.98L1562.03 345.36V354.09H1552.62V300.33L1551.29 301.66V305.72L1550.05 307.09V308.42H1546.05V305.75L1543.41 303.11V292.33L1539.41 297.68V304.38L1538.05 305.74V308.39H1536.69V258.78L1534.02 261.46V265.46H1531.29V260.09L1528.63 257.43V256.09L1527.33 254.79V242.62L1528.64 241.31V238.64H1527.34L1523.28 242.7H1520.01L1519.27 241.36V240L1519.9 238.69H1520.61L1524.61 234.69V227.97L1519.27 222.62V219.97L1520.61 218.63H1521.97L1523.28 217.33V215.92H1520.62L1519.26 211.92L1520.58 210.59H1521.95V209.2H1519.88L1519.26 183.71L1523.26 179.71V175.66L1521.89 177.03V179.72L1519.22 182.39H1518.48L1517.9 179.71L1517.32 182.39H1516.58L1513.9 179.72V177.03L1512.54 175.66V179.71L1516.54 183.71L1515.92 209.2H1513.85V210.59H1515.22L1516.54 211.92L1515.18 215.92H1512.52V217.33L1513.82 218.63H1515.19L1516.53 219.97V222.62L1511.18 227.97V234.69L1515.18 238.69H1515.89L1516.51 240V241.36L1515.78 242.7H1512.5L1508.45 238.64H1507.15V241.31L1508.46 242.62V254.78L1507.16 256.08V257.43L1504.5 260.09V265.5H1501.77V261.5L1499.09 258.82V308.39H1497.73V305.74L1496.38 304.38V297.68L1492.38 292.33V303.09L1489.74 305.73V308.4H1485.74V307.09L1484.42 305.77V301.71L1483.1 300.38V354.09H1473.68V345.36L1472.35 345.98L1471.01 344.64L1470.33 340.64L1469.64 344.64L1468.31 345.98L1466.97 345.36V354.09H1420.04V343.27L1418.75 344.57V349.97H1417.37V347.28L1416.06 345.96V316.48L1413.37 319.17V325.8H1412.03L1410.71 324.49V316.49L1409.35 315.13V312.44L1408.02 311.11H1406.66L1405.33 312.44V315.09L1403.97 316.45V324.45L1402.66 325.76H1401.31V319.13L1398.62 316.44V345.92L1397.31 347.24V349.93H1395.94V344.53L1394.64 343.23V355.34H1378.44V370.09H1365.1L1363.75 371.44H1355.68V356.65H1357.08V354.73H1340.92V356.65H1342.29V370.09H1335.58V367.39H1334.24V351.28H1320.85V356.67H1319.49V359.34H1280.6V364.73H1271.05V345.93H1236.21V363.35H1230.82V371.42H1214.82V362.02H1141.13V371.51H1137.13V325.82L1134.37 323.06V319.06L1132.99 317.68V307.09L1130.28 304.38V286.91H1131.67V285.66H1128.93L1126.25 283.09V280.28L1124.91 278.95L1124.28 276.24L1123.64 278.95L1122.31 280.28V283.09L1119.69 285.7H1116.96V286.95H1118.35V304.38L1115.64 307.09V317.77L1114.25 319.09V323.09L1111.49 325.85H1104.35V323.09C1104.35 322.24 1104.55 321.401 1104.93 320.64L1105.03 320.46H1104.45C1104.22 320.46 1103.99 320.527 1103.79 320.653C1103.59 320.779 1103.43 320.958 1103.33 321.17L1103.03 321.8L1102.71 321.15C1102.61 320.944 1102.45 320.77 1102.25 320.649C1102.06 320.527 1101.83 320.462 1101.6 320.46H1101L1101.09 320.64C1101.47 321.401 1101.67 322.24 1101.67 323.09V325.83H1097.67V323.09C1097.67 322.238 1097.87 321.398 1098.26 320.64L1098.35 320.46H1097.77C1097.54 320.46 1097.31 320.527 1097.11 320.653C1096.91 320.779 1096.75 320.958 1096.65 321.17L1096.36 321.8L1096.03 321.15C1095.93 320.944 1095.77 320.77 1095.57 320.649C1095.38 320.527 1095.15 320.462 1094.92 320.46H1094.32L1094.41 320.64C1094.8 321.398 1095 322.238 1095 323.09V325.83H1090.95V323.09C1090.95 322.24 1091.15 321.401 1091.53 320.64L1091.62 320.46H1091.04C1090.81 320.462 1090.58 320.529 1090.38 320.655C1090.18 320.78 1090.02 320.959 1089.92 321.17L1089.63 321.8L1089.3 321.15C1089.2 320.944 1089.04 320.77 1088.84 320.649C1088.65 320.527 1088.42 320.462 1088.19 320.46H1087.59L1087.69 320.64C1088.07 321.401 1088.27 322.24 1088.27 323.09V325.83H1084.22V323.09C1084.22 322.24 1084.42 321.401 1084.8 320.64L1084.89 320.46H1084.32C1084.08 320.461 1083.85 320.528 1083.65 320.653C1083.45 320.779 1083.29 320.958 1083.19 321.17L1082.9 321.8L1082.57 321.15C1082.47 320.944 1082.31 320.77 1082.11 320.649C1081.92 320.527 1081.69 320.462 1081.46 320.46H1080.87L1080.96 320.64C1081.34 321.401 1081.54 322.24 1081.54 323.09V325.83H1077.54V323.09C1077.54 322.24 1077.74 321.401 1078.12 320.64L1078.22 320.46H1077.64C1077.41 320.46 1077.18 320.527 1076.98 320.653C1076.78 320.779 1076.62 320.958 1076.52 321.17L1076.22 321.8L1075.9 321.15C1075.8 320.944 1075.64 320.77 1075.44 320.649C1075.25 320.527 1075.02 320.462 1074.79 320.46H1074.19L1074.28 320.64C1074.66 321.401 1074.86 322.24 1074.86 323.09V325.83H1070.86V323.09C1070.86 322.238 1071.06 321.398 1071.45 320.64L1071.54 320.46H1070.96C1070.73 320.46 1070.5 320.527 1070.3 320.653C1070.1 320.779 1069.94 320.958 1069.84 321.17L1069.55 321.8L1069.22 321.15C1069.12 320.944 1068.96 320.77 1068.76 320.649C1068.57 320.527 1068.34 320.462 1068.11 320.46H1067.51L1067.6 320.64C1067.94 321.41 1068.09 322.25 1068.05 323.09V325.83H1064.05V323.09C1064.05 322.24 1064.25 321.401 1064.63 320.64L1064.72 320.46H1064.05C1063.82 320.46 1063.59 320.527 1063.39 320.653C1063.19 320.779 1063.03 320.958 1062.93 321.17L1062.64 321.8L1062.31 321.15C1062.21 320.944 1062.05 320.77 1061.85 320.649C1061.66 320.527 1061.43 320.462 1061.2 320.46H1060.6L1060.7 320.64C1061.08 321.401 1061.28 322.24 1061.28 323.09V325.83H1057.28V323.09C1057.28 322.24 1057.48 321.401 1057.86 320.64L1057.95 320.46H1057.38C1057.14 320.46 1056.91 320.526 1056.71 320.652C1056.51 320.778 1056.35 320.957 1056.25 321.17L1055.96 321.8L1055.63 321.15C1055.53 320.944 1055.37 320.77 1055.17 320.649C1054.98 320.527 1054.75 320.462 1054.52 320.46H1053.92L1054.02 320.64C1054.4 321.401 1054.6 322.24 1054.6 323.09V325.83H1049.92V305.67L1048.57 307.03V309.71H1047.23L1044.53 305.71L1043.89 293.64L1043.25 305.71L1040.55 309.71H1039.21V307.03L1037.85 305.67V325.81H1033.29V323.09C1033.29 322.238 1033.49 321.398 1033.88 320.64L1033.97 320.46H1033.39C1033.16 320.46 1032.93 320.527 1032.73 320.653C1032.53 320.779 1032.37 320.958 1032.27 321.17L1031.97 321.8L1031.65 321.15C1031.55 320.944 1031.39 320.77 1031.19 320.649C1031 320.527 1030.77 320.462 1030.54 320.46H1029.94L1030.03 320.64C1030.42 321.399 1030.61 322.239 1030.61 323.09V325.83H1026.55V323.09C1026.55 322.24 1026.75 321.401 1027.13 320.64L1027.23 320.46H1026.65C1026.41 320.461 1026.18 320.528 1025.98 320.653C1025.78 320.779 1025.62 320.958 1025.52 321.17L1025.23 321.8L1024.91 321.15C1024.81 320.944 1024.65 320.77 1024.45 320.649C1024.26 320.527 1024.03 320.462 1023.8 320.46H1023.2L1023.29 320.64C1023.67 321.401 1023.87 322.24 1023.87 323.09V325.83H1019.81V323.09C1019.81 322.24 1020.01 321.401 1020.39 320.64L1020.48 320.46H1019.91C1019.67 320.46 1019.44 320.526 1019.24 320.652C1019.04 320.778 1018.88 320.957 1018.78 321.17L1018.49 321.8L1018.16 321.15C1018.06 320.944 1017.9 320.77 1017.7 320.649C1017.51 320.527 1017.28 320.462 1017.05 320.46H1016.45L1016.55 320.64C1016.93 321.401 1017.13 322.24 1017.13 323.09V325.83H1013.05V323.09C1013.05 322.238 1013.25 321.398 1013.64 320.64L1013.73 320.46H1013.15C1012.92 320.46 1012.69 320.527 1012.49 320.653C1012.29 320.779 1012.13 320.958 1012.03 321.17L1011.74 321.8L1011.41 321.15C1011.31 320.944 1011.15 320.77 1010.95 320.649C1010.76 320.527 1010.53 320.462 1010.3 320.46H1009.7L1009.79 320.64C1010.18 321.398 1010.38 322.238 1010.38 323.09V325.83H1006.31V323.09C1006.31 322.24 1006.51 321.401 1006.89 320.64L1006.99 320.46H1006.41C1006.18 320.46 1005.95 320.527 1005.75 320.653C1005.55 320.779 1005.39 320.958 1005.29 321.17L1004.99 321.8L1004.67 321.15C1004.57 320.944 1004.41 320.77 1004.21 320.649C1004.02 320.527 1003.79 320.462 1003.56 320.46H1002.96L1003.05 320.64C1003.43 321.401 1003.63 322.24 1003.63 323.09V325.83H999.57V323.09C999.571 322.24 999.769 321.401 1000.15 320.64L1000.25 320.46H999.67C999.434 320.461 999.203 320.528 999.003 320.653C998.804 320.779 998.643 320.958 998.54 321.17L998.25 321.8L997.93 321.15C997.827 320.944 997.668 320.77 997.472 320.649C997.276 320.527 997.051 320.462 996.82 320.46H996.22L996.31 320.64C996.691 321.401 996.889 322.24 996.89 323.09V325.83H992.21V297.65H993.57V296.34H992.22V274.82H993.56V273.53H992.25V248H993.61V245.35H992.23V234.58L993.53 233.28H994.94V226.56H993.52V222.56L990.92 219.96L990.28 206.49L989.56 219.96L988.22 221.29V223.92H986.88V226.61L985.54 227.95H982.84L981.52 226.62H980.15V214.5H977.47V179.68L976.11 181.09V186.45H974.76V170.45H976.22V164.89H974.73V150.09L976.16 148.66V143.42H973.44V140.82L972.1 139.48V136.74H970.75V131.39L969.43 132.71V136.78H965.43V132.68L964.05 131.28V124.7L962.74 123.39V115.32L961.35 113.93V104.6L960.05 103.31V96.5203L958.75 95.2203V88.5003L957.39 87.0903V80.4003L956.02 72.4003L954.65 80.4003V87.0903L953.28 88.4703V95.1903L951.99 96.4903V103.28L950.69 104.57V113.9L949.3 115.29V123.36L947.99 124.67V131.25L946.58 132.66V136.76H942.58V132.69L941.27 131.37V136.72H939.91V139.46L938.57 140.8V143.4H935.85V148.64L937.28 150.07V164.89H935.8V170.36H937.25V186.36H935.9V181.09L934.55 179.73V214.55H931.87V226.66H930.51L929.19 227.99H926.48L925.15 226.65V223.96H923.8V221.33L922.47 220L921.75 206.53L921.11 220L918.51 222.6V226.6H917.08V233.32H918.5L919.79 234.62V245.39H918.41V248.04H919.77V273.57H918.46V274.86H919.8V296.38H918.45V297.69H919.81V325.86H915.15V323.09C915.149 322.238 915.351 321.398 915.74 320.64L915.83 320.46H915.23C914.999 320.462 914.774 320.527 914.578 320.649C914.382 320.77 914.223 320.944 914.12 321.15L913.79 321.8L913.5 321.17C913.4 320.958 913.241 320.779 913.043 320.653C912.845 320.527 912.615 320.46 912.38 320.46H911.8L911.89 320.64C912.276 321.399 912.474 322.239 912.47 323.09V325.83H908.41V323.09C908.411 322.24 908.609 321.401 908.99 320.64L909.09 320.46H908.49C908.259 320.462 908.034 320.527 907.838 320.649C907.642 320.77 907.483 320.944 907.38 321.15L907.05 321.8L906.76 321.17C906.658 320.957 906.498 320.778 906.298 320.652C906.098 320.526 905.866 320.46 905.63 320.46H905.05L905.14 320.64C905.521 321.401 905.719 322.24 905.72 323.09V325.83H901.66V323.09C901.661 322.24 901.859 321.401 902.24 320.64L902.33 320.46H901.73C901.499 320.462 901.274 320.527 901.078 320.649C900.882 320.77 900.723 320.944 900.62 321.15L900.3 321.8L900.01 321.17C899.907 320.958 899.746 320.779 899.547 320.653C899.347 320.528 899.116 320.461 898.88 320.46H898.3L898.4 320.64C898.781 321.401 898.979 322.24 898.98 323.09V325.83H894.91V323.09C894.909 322.238 895.111 321.398 895.5 320.64L895.59 320.46H895.05C894.819 320.462 894.594 320.527 894.398 320.649C894.202 320.77 894.043 320.944 893.94 321.15L893.61 321.8L893.32 321.17C893.22 320.958 893.061 320.779 892.863 320.653C892.665 320.527 892.435 320.46 892.2 320.46H891.62L891.71 320.64C892.099 321.398 892.301 322.238 892.3 323.09V325.83H888.23V323.09C888.231 322.24 888.429 321.401 888.81 320.64L888.91 320.46H888.31C888.079 320.462 887.854 320.527 887.658 320.649C887.462 320.77 887.303 320.944 887.2 321.15L886.87 321.8L886.58 321.17C886.48 320.958 886.321 320.779 886.123 320.653C885.925 320.527 885.695 320.46 885.46 320.46H884.88L884.97 320.64C885.351 321.401 885.549 322.24 885.55 323.09V325.83H881.49V323.09C881.491 322.24 881.689 321.401 882.07 320.64L882.17 320.46H881.57C881.339 320.462 881.114 320.527 880.918 320.649C880.722 320.77 880.563 320.944 880.46 321.15L880.13 321.8L879.84 321.17C879.738 320.957 879.578 320.778 879.378 320.652C879.178 320.526 878.946 320.46 878.71 320.46H878.05L878.14 320.64C878.521 321.401 878.719 322.24 878.72 323.09V325.83H874.16V305.67L872.81 307.03V309.71H871.47L868.77 305.71L868.13 293.64L867.49 305.71L864.79 309.71H863.45V307.03L862.09 305.67V325.82H857.45V323.09C857.449 322.238 857.651 321.398 858.04 320.64L858.13 320.46H857.53C857.299 320.462 857.074 320.527 856.878 320.649C856.682 320.77 856.523 320.944 856.42 321.15L856.09 321.8L855.8 321.17C855.7 320.958 855.541 320.779 855.343 320.653C855.145 320.527 854.915 320.46 854.68 320.46H854.1L854.19 320.64C854.579 321.398 854.781 322.238 854.78 323.09V325.83H850.73V323.09C850.731 322.24 850.929 321.401 851.31 320.64L851.4 320.46H850.8C850.569 320.462 850.344 320.527 850.148 320.649C849.952 320.77 849.793 320.944 849.69 321.15L849.37 321.8L849.07 321.17C848.97 320.958 848.811 320.779 848.613 320.653C848.415 320.527 848.185 320.46 847.95 320.46H847.37L847.47 320.64C847.851 321.401 848.049 322.24 848.05 323.09V325.83H844.05V323.09C844.051 322.24 844.249 321.401 844.63 320.64L844.72 320.46H844.05C843.819 320.462 843.594 320.527 843.398 320.649C843.202 320.77 843.043 320.944 842.94 321.15L842.61 321.8L842.32 321.17C842.217 320.958 842.056 320.779 841.857 320.653C841.657 320.528 841.426 320.461 841.19 320.46H840.62L840.71 320.64C841.091 321.401 841.289 322.24 841.29 323.09V325.83H837.29V323.09C837.291 322.24 837.489 321.401 837.87 320.64L837.97 320.46H837.37C837.139 320.462 836.914 320.527 836.718 320.649C836.522 320.77 836.363 320.944 836.26 321.15L835.93 321.8L835.64 321.17C835.539 320.959 835.38 320.78 835.182 320.655C834.984 320.529 834.754 320.462 834.52 320.46H833.94L834.03 320.64C834.411 321.401 834.609 322.24 834.61 323.09V325.83H830.61V323.09C830.609 322.238 830.811 321.398 831.2 320.64L831.29 320.46H830.69C830.459 320.462 830.234 320.527 830.038 320.649C829.842 320.77 829.683 320.944 829.58 321.15L829.25 321.8L828.96 321.17C828.86 320.958 828.701 320.779 828.503 320.653C828.305 320.527 828.075 320.46 827.84 320.46H827.26L827.35 320.64C827.739 321.398 827.941 322.238 827.94 323.09V325.83H823.89V323.09C823.891 322.24 824.089 321.401 824.47 320.64L824.56 320.46H823.96C823.729 320.462 823.504 320.527 823.308 320.649C823.112 320.77 822.953 320.944 822.85 321.15L822.53 321.8L822.23 321.17C822.13 320.958 821.971 320.779 821.773 320.653C821.575 320.527 821.345 320.46 821.11 320.46H820.53L820.63 320.64C821.011 321.401 821.209 322.24 821.21 323.09V325.83H817.05V323.09C817.051 322.24 817.249 321.401 817.63 320.64L817.72 320.46H817.12C816.889 320.462 816.664 320.527 816.468 320.649C816.272 320.77 816.113 320.944 816.01 321.15L815.69 321.8L815.4 321.17C815.297 320.958 815.136 320.779 814.937 320.653C814.737 320.528 814.506 320.461 814.27 320.46H813.7L813.79 320.64C814.171 321.401 814.369 322.24 814.37 323.09V325.83H810.32V323.09C810.321 322.24 810.519 321.401 810.9 320.64L811 320.46H810.4C810.169 320.462 809.944 320.527 809.748 320.649C809.552 320.77 809.393 320.944 809.29 321.15L808.96 321.8L808.67 321.17C808.568 320.957 808.408 320.778 808.208 320.652C808.008 320.526 807.776 320.46 807.54 320.46H807.05L807.14 320.64C807.521 321.401 807.719 322.24 807.72 323.09V325.83H800.55L797.79 323.09V319.09L796.41 317.71V307.09L793.69 304.38V286.91H795.05V285.66H792.35L789.74 283.09V280.28L788.4 278.95L787.76 276.24L787.12 278.95L785.78 280.28V283.09L783.17 285.7H780.44V286.95H781.83V304.38L779.12 307.09V317.77L777.73 319.09V323.09L774.97 325.85L774.91 356.65H760.29V362.05H752.2V372.9H741.45V348.58H729.45V367.41H721.31V345.84H705.31V371.51H592.63L595.31 394.21H584.64V383.47H572.56V394.18H559.13V367.35H557.82V359.35H556.43V351.35H555.05V340.56H553.75V324.46H552.42V317.73H549.68L548.41 316.46H545.76L544.39 315.09V313.76H536.32V315.09L534.98 316.43H532.35L530.99 317.79V319.09H516.22V312.41H497.47L493.41 316.41V319.08H490.78V384.74H481.29V394.2H465.29V399.51H459.93V378.09H451.93V367.38H450.55V368.73H429.05V367.41H427.72V378.09H425.05V323.09C425.05 316.333 422.365 309.852 417.587 305.073C412.809 300.295 406.328 297.61 399.57 297.61H396.91L396.86 294.98H387.56L382.17 300.37H372.8V392.89H358.05V398.24H352.7V388.82H355.38V384.82H337.9V396.94H325.84V394.21H327.21V392.87H309.74V396.87H303.05V406.32H294.95V404.92H293.7V415.64H292.56C292.004 415.64 291.453 415.75 290.939 415.963C290.425 416.176 289.958 416.489 289.565 416.883C289.172 417.277 288.861 417.744 288.649 418.258C288.437 418.773 288.329 419.324 288.33 419.88V426.4H282.92V445.09H276.21V408.84H269.44V406.17H254.82V410.36H249.39V446.62H242.7V457.32H234.64V461.64M913.56 325.83V324.48H914.06V325.83H913.56ZM906.82 325.83V324.48H907.32V325.83H906.82ZM900.08 325.83V324.48H900.58V325.83H900.08ZM893.34 325.83V324.48H893.84V325.83H893.34ZM886.59 325.83V324.48H887.09V325.83H886.59ZM879.85 325.83V324.48H880.35V325.83H879.85ZM855.85 325.83V324.48H856.35V325.83H855.85ZM849.12 325.83V324.48H849.62V325.83H849.12ZM842.39 325.83V324.48H842.89V325.83H842.39ZM835.66 325.83V324.48H836.16V325.83H835.66ZM828.94 325.83V324.48H829.43V325.83H828.94ZM822.21 325.83V324.48H822.71V325.83H822.21ZM815.48 325.83V324.48H815.98V325.83H815.48ZM808.75 325.83V324.48H809.25V325.83H808.75Z" fill="url(#paint2_linear_1_469)"/>
<path d="M956.05 190.39V203.85M953.3 201.09H964.13M969.74 201.09C969.748 203.807 968.949 206.464 967.445 208.727C965.941 210.989 963.799 212.753 961.291 213.797C958.783 214.841 956.022 215.117 953.357 214.589C950.692 214.062 948.244 212.755 946.322 210.835C944.401 208.915 943.092 206.468 942.563 203.803C942.034 201.139 942.307 198.377 943.349 195.868C944.391 193.359 946.154 191.216 948.415 189.711C950.676 188.205 953.333 187.404 956.05 187.41C959.677 187.418 963.153 188.862 965.718 191.425C968.283 193.989 969.729 197.464 969.74 201.09Z" stroke="white" stroke-width="0.5" stroke-miterlimit="10"/>
</g>
<defs>
<linearGradient id="paint0_linear_1_469" x1="972.124" y1="468.392" x2="972.124" y2="103.891" gradientUnits="userSpaceOnUse">
<stop stop-color="#191817"/>
<stop offset="1"/>
</linearGradient>
<linearGradient id="paint1_linear_1_469" x1="905.108" y1="468.398" x2="905.108" y2="0.0140706" gradientUnits="userSpaceOnUse">
<stop stop-color="#191817"/>
<stop offset="1"/>
</linearGradient>
<linearGradient id="paint2_linear_1_469" x1="960.03" y1="642.298" x2="960.03" y2="61.5878" gradientUnits="userSpaceOnUse">
<stop stop-color="#191817"/>
<stop offset="1"/>
</linearGradient>
<clipPath id="clip0_1_469">
<rect width="1920.06" height="726.13" fill="white"/>
</clipPath>
</defs>
</svg>
